<svg width="99" height="88" viewBox="0 0 99 88" fill="none" xmlns="http://www.w3.org/2000/svg">
<path d="M86.945 2H11.7357C6.29902 2 1.8916 6.3952 1.8916 11.8169V68.7026C1.8916 74.1243 6.29902 78.5195 11.7357 78.5195H42.2792L49.3404 85.063L56.4016 78.5195H86.945C92.3818 78.5195 96.7892 74.1243 96.7892 68.7026V11.8169C96.7892 6.3952 92.3818 2 86.945 2Z" stroke="white" stroke-width="3" stroke-miterlimit="10"/>
<path d="M18.3291 42.8613V45.3316C18.3291 50.5352 22.5591 54.7533 27.7769 54.7533C32.9949 54.7533 37.2247 50.535 37.2247 45.3316V42.8613H18.3291Z" stroke="white" stroke-width="3" stroke-miterlimit="10"/>
<path d="M18.3291 44.5507V40.4286L27.7771 20.0806" fill="#67B101"/>
<path d="M18.3291 44.5507V40.4286L27.7771 20.0806" stroke="white" stroke-width="3" stroke-miterlimit="10"/>
<path d="M37.2252 44.5507V40.4286L27.7773 20.0806" fill="#67B101"/>
<path d="M37.2252 44.5507V40.4286L27.7773 20.0806" stroke="white" stroke-width="3" stroke-miterlimit="10"/>
<path d="M80.3507 42.8613V45.3316C80.3507 50.5352 76.1207 54.7533 70.9029 54.7533C65.6849 54.7533 61.4551 50.535 61.4551 45.3316V42.8613H80.3507Z" stroke="white" stroke-width="3" stroke-miterlimit="10"/>
<path d="M80.3513 44.5507V40.4286L70.9033 20.0806" fill="#67B101"/>
<path d="M80.3513 44.5507V40.4286L70.9033 20.0806" stroke="white" stroke-width="3" stroke-miterlimit="10"/>
<path d="M61.4551 44.5507V40.4286L70.9029 20.0806" fill="#67B101"/>
<path d="M61.4551 44.5507V40.4286L70.9029 20.0806" stroke="white" stroke-width="3" stroke-miterlimit="10"/>
<path d="M17.625 19.4111H81.0556" stroke="white" stroke-width="3" stroke-miterlimit="10"/>
<path d="M31.7441 66.103H66.9374" stroke="white" stroke-width="3" stroke-miterlimit="10"/>
<path d="M49.3398 11.0259V65.7105" stroke="white" stroke-width="3" stroke-miterlimit="10"/>
</svg>
