<svg width="46" height="55" viewBox="0 0 46 55" fill="none" xmlns="http://www.w3.org/2000/svg">
<path d="M5.31316 4.43607C5.31316 4.43607 20.1332 -4.92786 40.7483 4.57584C40.7483 4.57584 40.9914 4.89212 40.9437 5.63895C40.6548 10.1709 38.3387 27.146 23.4637 39.2167C23.1582 39.5166 22.7831 39.4809 22.452 39.2167C19.6186 36.9517 7.12472 26.0013 5.00312 5.43388C4.96277 5.04414 5.32691 4.83499 5.31407 4.43709L5.31316 4.43607Z" fill="white"/>
<path d="M33.0558 1.31806C35.5177 2.0557 39.1426 3.55344 40.7496 4.57574C39.9544 5.10526 39.1867 5.61539 38.4198 6.12858C38.252 6.2408 38.1327 6.10409 38.0025 6.03573C35.8286 4.90937 33.5905 3.98501 31.2607 3.33613C27.6293 2.32505 23.9502 1.99755 20.2207 2.32505C15.9637 2.69949 11.8976 3.8687 8.04235 5.91942C7.86257 6.01533 7.71765 6.049 7.5342 5.92248C6.82516 5.43582 6.10787 4.96548 5.31445 4.43597C5.77491 4.18498 6.16933 3.95951 6.57109 3.75341C9.34118 2.34138 12.2305 1.3456 15.218 0.690598C15.3703 0.65693 24.6519 -1.19892 33.0558 1.31806Z" fill="#363636"/>
<path d="M13.4686 25.7319C11.8075 22.8782 10.5948 19.794 9.66292 16.5659C8.86858 13.8132 8.35492 10.9912 7.98068 8.13551C7.95225 7.92125 7.91648 7.69986 7.97426 7.48764C8.10268 7.41521 8.18798 7.51519 8.27329 7.57233C12.2175 10.225 16.1589 12.8817 20.1012 15.5375C20.8194 16.0211 21.534 16.5108 22.2595 16.9791C22.4833 17.124 22.5815 17.2903 22.5815 17.5841C22.5741 23.3955 22.575 29.2069 22.5723 35.0193C22.5723 35.1866 22.5576 35.355 22.5457 35.6294C18.9895 33.3706 16.2405 30.2812 13.9822 26.6114C14.0199 26.4797 14.0565 26.3471 14.0932 26.2155C14.2648 26.2288 14.4189 26.1798 14.5739 26.09C15.559 25.5197 16.5469 24.9545 17.5375 24.3943C17.8173 24.2352 18.0402 24.0342 17.9503 23.6475C17.865 23.2812 17.598 23.22 17.2999 23.2568C17.2752 23.2353 17.2513 23.2364 17.2284 23.2598C17.3054 22.8089 17.2651 22.464 16.7523 22.3793C16.5496 22.3467 16.2818 21.5917 16.4029 21.5111C16.7496 21.2775 16.989 20.9112 17.3724 20.7041C18.8684 19.8991 20.337 19.0329 21.8192 18.1963C22.1155 18.029 22.2366 17.7923 22.0862 17.4545C21.9366 17.1189 21.6862 17.1413 21.4248 17.2903C20.8543 17.6147 20.3021 17.9892 19.7105 18.2544C18.4529 18.8197 17.4311 19.9664 15.9883 20.0827C15.6049 20.1133 15.2306 19.7358 15.36 19.2675C15.4875 18.8054 15.3581 18.5493 14.9527 18.4228C15.1591 18.1626 15.3233 17.8912 15.1151 17.5556C14.9344 17.2627 14.6794 17.2678 14.4244 17.4127C13.3649 18.0147 12.3083 18.6238 11.2507 19.2298C11.014 19.3655 10.9315 19.593 10.9691 19.8644C11.0113 20.1644 11.2241 20.2633 11.4653 20.298C11.5552 20.3113 11.7295 20.3021 11.7295 20.3021C11.6194 20.7214 11.6717 21.0469 12.1267 21.1265C12.2762 21.153 12.3064 21.2979 12.3596 21.4111C12.7485 22.2334 13.1329 23.0588 13.5163 23.8832C13.5768 24.0138 13.6722 24.1352 13.5777 24.3025C13.4025 24.6147 13.519 24.8453 13.7603 25.033C13.7988 25.0504 13.8089 25.0524 13.8428 25.0473C13.9043 25.0596 13.9648 25.0718 14.0263 25.083C13.8667 25.2595 13.6952 25.4289 13.7034 25.7125C13.6254 25.7197 13.5466 25.7258 13.4686 25.7329V25.7319Z" fill="#67B101"/>
<path d="M37.489 6.75598C36.4222 7.4671 35.4096 8.14863 34.3924 8.82098C30.9683 11.0839 27.5387 13.3377 24.1182 15.6098C22.9983 16.3535 23.0157 16.3638 21.8902 15.6016C17.5608 12.6745 13.2268 9.75452 8.89465 6.83148C8.78092 6.75496 8.67176 6.66722 8.50391 6.54173C12.4554 4.49713 16.5555 3.34934 20.8446 3.06571C26.6554 2.68209 32.1836 3.91558 37.489 6.75598ZM18.135 5.18682C17.4425 5.16438 16.584 5.29395 15.7373 5.53167C15.4842 5.60309 15.3154 5.72654 15.265 6.05914C15.1925 6.54173 15.0696 7.01717 14.943 7.48751C14.8384 7.87622 14.9008 7.97111 15.2916 7.91499C17.3022 7.62728 19.3201 7.40997 21.3427 7.26101C21.6628 7.23754 21.9856 7.26407 22.2489 7.51505C22.4644 7.72012 23.6651 7.88439 23.8357 7.66503C24.2485 7.13552 24.7686 7.24162 25.2786 7.28651C27.2085 7.45588 29.1301 7.70584 31.0435 8.03232C31.3517 8.08436 31.3801 7.95274 31.3104 7.66911C31.1829 7.14572 31.0591 6.62029 30.9609 6.08975C30.9013 5.76531 30.7463 5.60003 30.4647 5.51841C29.2237 5.15826 27.9679 5.10418 26.6994 5.27048C25.6097 5.41332 24.6319 5.84795 23.8229 6.68864C23.5697 6.95187 23.3615 7.48649 23.1221 7.49465C22.8148 7.50587 22.6635 6.93963 22.3892 6.6713C21.2188 5.52555 19.8246 5.1705 18.1341 5.18682H18.135ZM31.5195 9.47701C31.9305 9.48823 32.2332 9.49333 32.2698 9.03524C32.3075 8.57102 31.9993 8.51593 31.7048 8.48328C29.3998 8.22821 27.0947 7.98233 24.7897 7.72421C24.5943 7.70278 24.4595 7.70788 24.3219 7.90887C23.5468 9.04442 22.7607 9.03932 22.0132 7.90377C21.9123 7.75073 21.8306 7.67319 21.6453 7.6936C19.3256 7.95172 17.005 8.19863 14.6843 8.44961C14.355 8.48532 14.0523 8.58326 14.1037 9.04748C14.1532 9.49231 14.4789 9.48925 14.7724 9.4515C15.5282 9.35356 16.2822 9.22909 17.0371 9.12196C18.3818 8.93117 19.7255 8.74242 21.0711 8.56286C21.2573 8.53837 21.4582 8.47103 21.6077 8.71079C22.3168 9.8494 23.9642 9.78717 24.6328 8.68121C24.7337 8.51388 24.842 8.47307 25.0153 8.50266C25.9188 8.65264 26.8241 8.79752 27.7304 8.93117C29.0283 9.12298 30.328 9.3056 31.5186 9.47599L31.5195 9.47701Z" fill="#909090"/>
<path d="M36.0684 24.8574C36.4418 24.8002 36.7069 24.7951 36.783 25.3889C36.7986 25.5124 36.9197 25.5032 37.0086 25.5154C37.3682 25.5654 37.4425 25.8276 37.4902 26.1878C37.7296 27.9967 37.2379 29.7036 36.9426 31.439C36.9068 31.6502 36.838 31.8318 36.6858 31.9604C35.5796 32.896 34.7641 34.1346 33.8781 35.2987C33.1277 36.2842 32.3453 37.2331 31.4675 38.084C30.7777 38.7512 30.4503 39.6705 30.1687 40.6081C30.0916 40.8632 30.0522 41.1346 29.9632 41.3835C29.7981 41.8436 29.8348 42.2701 30.0522 42.6956C30.2329 43.0486 30.3925 43.4138 30.564 43.7719C30.6613 43.975 30.6447 44.0719 30.4035 44.0709C28.7846 44.0637 27.1647 44.0627 25.5458 44.0739C25.3467 44.0749 25.2614 43.9699 25.2256 43.8015C24.9385 42.4405 24.4185 41.1407 24.3258 39.7286C24.2644 38.7849 24.6496 37.9901 25.0816 37.2239C25.9374 35.7047 26.9345 34.36 28.5323 33.7479C28.7589 33.6612 28.9653 33.5081 29.179 33.3836C29.8522 32.9929 30.2283 32.4226 30.3595 31.5462C30.542 30.3208 30.8575 29.118 31.1437 27.914C31.2116 27.6274 31.3694 27.36 31.5152 27.104C31.6253 26.9111 31.7968 26.8152 32.0234 26.8877C32.2554 26.9611 32.2784 27.1529 32.2655 27.3651C32.2316 27.9222 32.2692 28.5038 32.1353 29.0302C31.9482 29.7638 32.0509 30.5157 31.8995 31.2421C31.8766 31.3503 31.8702 31.5207 31.9261 31.5798C32.0298 31.689 32.149 31.5533 32.2564 31.5023C33.1846 31.0585 33.4662 30.1872 33.5644 29.1516C33.6552 28.1977 33.5772 27.2264 33.8129 26.2857C33.9083 25.9052 34.0101 25.544 34.3312 25.3256C34.6816 25.0859 34.9421 25.2246 35.0173 25.6817C35.0815 26.0725 34.9705 26.4602 34.9962 26.8489C35.0659 27.8845 35.0696 28.9119 34.7458 29.9086C34.7274 29.9658 34.7338 30.0433 34.876 30.1015C35.4484 28.6201 35.7547 27.208 35.5768 25.594C35.6208 25.4787 35.707 25.4501 35.8208 25.2246C35.9061 25.1675 36.0749 24.8563 36.0703 24.8563L36.0684 24.8574Z" fill="black"/>
<path d="M10.0635 24.4973C10.1103 24.4841 10.1314 24.4851 10.135 24.4769C10.2368 24.227 10.1855 23.8301 10.4955 23.776C10.8422 23.7158 11.011 24.0729 11.1954 24.3372C11.5779 24.8861 11.5366 25.5105 11.4238 26.1328C11.1798 27.4683 11.9154 29.5078 12.917 30.2689C13.1555 30.4495 13.2601 30.4363 13.3353 30.0965C13.4491 29.5813 13.2427 29.1293 13.1464 28.662C13.0317 28.106 12.8372 27.5704 12.6887 27.0225C12.6235 26.7817 12.5346 26.4991 12.7886 26.3379C13.0372 26.1808 13.2583 26.3195 13.4371 26.5338C13.7628 26.9225 14.0599 27.3541 14.17 27.8642C14.3324 28.6212 14.6938 29.2936 14.835 30.0567C15.0221 31.0627 15.7523 31.7993 15.9825 32.792C15.9247 31.6341 15.0542 30.8393 14.9084 29.7313C15.1799 29.6874 15.3652 29.7405 15.6211 29.9833C16.099 30.4383 16.575 30.925 16.8199 31.5698C17.3813 33.0502 18.3463 34.1163 19.4763 35.0519C20.0542 35.5294 20.5458 36.113 20.8944 36.8272C21.4915 38.0484 21.5309 39.3156 21.0861 40.5919C20.7293 41.6152 20.4724 42.6732 20.1523 43.7078C20.1037 43.8659 20.112 44.0761 19.8597 44.0741C18.3967 44.0639 16.9337 44.069 15.4266 44.069C15.6339 43.3354 15.8715 42.6641 16.0706 41.9795C16.3136 41.1429 16.2072 40.3817 15.8844 39.6257C14.968 37.475 13.6307 35.6875 12.0383 34.1204C11.2275 33.3226 10.4891 32.437 9.62871 31.6973C9.11413 31.2545 8.81327 30.6668 8.8252 29.9037C8.84446 28.5631 8.4372 27.2582 8.53993 25.9073C8.55369 25.7288 8.47848 25.5431 8.45371 25.3595C8.41152 25.0391 8.35557 24.7116 8.69495 24.5218C8.81694 24.4535 8.84446 24.2933 8.86097 24.1739C8.94719 23.5505 9.43425 23.5291 9.79106 24.0137C9.90113 24.1627 9.97726 24.3423 10.0626 24.4953L10.0635 24.4973Z" fill="black"/>
<path d="M35.485 25.4665C35.4116 25.5645 35.2731 25.7002 35.2043 25.792C35.1648 25.7257 35.1236 25.6716 35.1071 25.592C34.9355 24.785 34.1898 24.8881 33.8211 25.7196C33.5514 26.3276 33.445 26.9949 33.4835 27.6499C33.5413 28.6355 33.2634 29.4272 32.6406 30.1016C32.492 30.2628 32.3681 30.4536 32.1801 30.6994C32.1801 30.2822 32.1214 29.9383 32.192 29.6312C32.3626 28.8844 32.3837 28.1233 32.4388 27.3642C32.4544 27.1469 32.5177 26.9745 32.6241 26.8051C35.8354 21.7242 37.7396 16.0802 38.4715 9.93719C38.5697 9.11384 38.6146 8.28131 38.6596 7.45184C38.6733 7.20493 38.7329 7.06006 38.9338 6.93355C39.5576 6.54075 40.1657 6.11734 40.7812 5.70822C40.8188 5.68373 40.8637 5.67251 40.9454 5.63782C41.0288 6.34384 40.9233 7.02639 40.8591 7.70078C40.2969 13.6448 38.7018 19.2266 36.0803 24.4463C36.0105 24.584 35.5758 25.2747 35.485 25.4665Z" fill="#EE1719"/>
<path d="M12.6602 28.9721C12.2419 28.4528 11.9612 27.8254 11.5916 27.2652C11.3971 26.9714 11.4971 26.5103 11.5732 26.1226C11.7228 25.3594 11.6797 24.6422 11.1816 24.0229C10.7312 23.4627 10.49 23.4464 9.9809 24.0453C7.26676 18.1931 5.77256 11.9808 5.00391 5.43274C5.55334 5.66026 5.934 6.0755 6.40088 6.28363C7.15577 6.62134 7.32913 7.25594 7.43645 8.09357C8.22987 14.2814 9.8479 20.1673 12.7748 25.5522C12.9097 25.8002 13.1234 26.0093 12.6804 26.2123C12.3969 26.3419 12.441 26.7174 12.5254 27.0316C12.6978 27.6774 12.9739 28.2916 13.0152 28.9783C12.8968 28.9762 12.7785 28.9742 12.6602 28.9721Z" fill="#67B101"/>
<path d="M30.4418 30.0933C30.3015 30.8462 30.1896 31.5788 30.0217 32.295C29.9328 32.6745 29.5925 32.8551 29.32 33.0643C29.0962 33.2357 28.8559 33.4 28.6009 33.501C26.5325 34.3141 25.352 36.1128 24.443 38.1829C24.2311 38.6665 23.9532 38.9685 23.4643 39.2164C23.4643 38.3604 23.4625 37.5442 23.4662 36.727C23.4662 36.5699 23.5863 36.5026 23.6872 36.4271C26.0592 34.6692 28.2166 32.6327 30.1355 30.2851C30.2024 30.2025 30.2529 30.079 30.4428 30.0943L30.4418 30.0933Z" fill="#EE1719"/>
<path d="M30.8071 54.308C30.6447 54.308 30.5512 54.2896 30.464 54.3111C29.6835 54.4978 29.1377 54.1499 28.7561 53.4041C28.6736 53.2428 28.5718 53.0918 28.4644 52.949C28.3269 52.7654 28.1131 52.7552 27.9866 52.8888C27.7527 53.1327 28.0315 54.1172 28.3379 54.2192C28.0764 54.3284 27.5967 54.3468 27.0748 54.2376C27.3913 54.1825 27.4059 53.9458 27.405 53.6928C27.4032 52.8939 27.4013 52.0951 27.4069 51.2962C27.4087 51.0075 27.416 50.73 27.0537 50.6871C27.5197 50.6871 27.9847 50.6922 28.4507 50.6851C28.8112 50.68 29.1313 50.785 29.2946 51.1615C29.4697 51.5666 29.3954 51.9859 29.1084 52.2807C28.8323 52.5623 28.8818 52.7572 29.1028 53.0174C29.3331 53.2877 29.5413 53.5826 29.7568 53.8693C29.9825 54.1703 30.1201 54.0703 30.232 53.755C30.5659 52.8143 30.9052 51.8767 31.2446 50.9381C31.2914 50.8075 31.285 50.5922 31.4565 50.6085C31.5721 50.6198 31.5895 50.8085 31.6335 50.9309C31.9436 51.7931 32.2573 52.6542 32.5701 53.5153C32.6875 53.8397 32.8076 54.1611 33.1589 54.307C32.8782 54.307 32.5976 54.308 32.3169 54.307C32.2013 54.307 32.1261 54.2947 32.1426 54.107C32.1545 53.9734 32.0628 53.8275 32.016 53.6887C31.806 53.0643 31.54 52.8766 30.9722 53.0623C30.6172 53.1786 30.6805 53.6428 30.5356 53.9376C30.4163 54.1805 30.7025 54.1264 30.808 54.308H30.8071ZM27.9517 51.7563H27.9535C27.9535 51.8747 27.97 51.9951 27.9508 52.1093C27.8765 52.5481 28.1122 52.5685 28.3975 52.5368C28.6543 52.5093 28.7525 52.3216 28.7974 52.0696C28.8653 51.688 28.857 51.3227 28.5516 51.0656C28.4085 50.9452 28.2214 50.8493 28.0434 50.9452C27.871 51.0371 27.9728 51.2462 27.9545 51.4023C27.9407 51.5186 27.9517 51.638 27.9517 51.7553V51.7563ZM31.3308 51.6104C31.0373 52.4362 31.1618 52.8157 31.7042 52.749C31.5895 52.4011 31.4785 52.0604 31.3308 51.6104Z" fill="black"/>
<path d="M40.7443 49.3374C40.4645 49.3374 40.1839 49.3374 39.9041 49.3374C39.7702 49.3374 39.6757 49.3221 39.7041 49.1099C39.7197 48.9905 39.6445 48.8538 39.6032 48.7273C39.3923 48.0764 39.1685 47.9397 38.5567 48.0906C38.2054 48.1774 38.2769 48.5692 38.1503 48.815C38.0549 49.0007 38.1045 49.1956 38.3099 49.3211H35.9581C36.4387 48.9109 36.4452 46.0379 35.9443 45.7175H37.1725C36.8983 45.8236 36.8313 46.0175 36.8387 46.2991C36.8579 47.0786 36.8405 47.8601 36.8506 48.6406C36.8533 48.8375 36.7497 49.1252 37.056 49.168C37.3431 49.2078 37.6275 49.2425 37.7687 48.8263C38.0577 47.9754 38.3723 47.1357 38.6842 46.295C38.7731 46.0542 38.8117 45.7798 39.0538 45.538C39.4125 46.5266 39.7564 47.4744 40.0995 48.4243C40.2316 48.7895 40.3416 49.1731 40.7434 49.3374H40.7443ZM38.4925 47.8244C38.7071 47.8244 38.8841 47.8213 39.0612 47.8254C39.185 47.8284 39.2877 47.7948 39.2308 47.6326C39.1263 47.3326 39.0758 47.0031 38.8704 46.6898C38.7346 47.0959 38.6209 47.4387 38.4915 47.8244H38.4925Z" fill="black"/>
<path d="M17.502 32.5605C17.7588 32.4748 17.8478 32.6707 17.9642 32.789C19.3099 34.1541 20.7252 35.4162 22.3193 36.4109C22.4753 36.5089 22.5817 36.6109 22.5789 36.8364C22.5716 37.5159 22.5789 38.1964 22.5863 38.8759C22.589 39.1809 22.4835 39.2248 22.2533 39.0881C21.8185 38.83 21.4892 38.5769 21.414 37.9117C21.2902 36.8119 20.6683 35.962 19.9272 35.2438C19.4667 34.7979 18.9897 34.3735 18.5173 33.944C18.0991 33.5634 17.7478 33.1247 17.502 32.5605Z" fill="#67B101"/>
<path d="M9.94809 49.2272C10.215 49.1945 10.2728 49.0313 10.27 48.7854C10.2609 47.9386 10.2673 47.0908 10.2737 46.2439C10.2755 45.9674 10.2379 45.7348 9.93066 45.692C10.5232 45.692 11.1148 45.6848 11.7074 45.694C12.7026 45.7083 13.3584 46.3521 13.3896 47.3336C13.4263 48.4793 12.7916 49.2925 11.7716 49.3537C11.1818 49.3894 10.5892 49.3598 9.99854 49.3598C9.98203 49.3159 9.96552 49.2721 9.94901 49.2272H9.94809ZM10.8782 47.4509C10.8782 47.4509 10.8855 47.4509 10.8901 47.4509C10.8901 47.857 10.8901 48.263 10.8901 48.6691C10.8901 48.8283 10.913 48.9639 11.0653 49.0425C11.6239 49.3312 12.4825 48.966 12.6953 48.3446C13.1117 47.1244 12.4604 46.0174 11.2983 45.9552C11.0057 45.9389 10.8415 46.0001 10.8727 46.3858C10.9011 46.7377 10.8791 47.0959 10.8791 47.4509H10.8782Z" fill="black"/>
<path d="M26.6504 49.2843C26.9311 49.1863 26.955 48.9812 26.9513 48.7231C26.9403 47.9079 26.9403 47.0917 26.955 46.2765C26.9605 45.9868 26.9137 45.7817 26.6211 45.7042C27.2925 45.7042 27.9685 45.6572 28.6354 45.7164C29.4517 45.7889 30.0158 46.4306 30.0599 47.2213C30.1195 48.2875 29.693 49.0027 28.8482 49.2659C28.1263 49.4904 27.3998 49.27 26.6504 49.2843ZM27.5402 47.4213C27.5466 47.4213 27.553 47.4213 27.5594 47.4213C27.5594 47.8263 27.5539 48.2324 27.5622 48.6374C27.5649 48.7843 27.5659 48.9374 27.7163 49.0302C28.2144 49.3353 29.1619 48.9823 29.3435 48.3579C29.7251 47.0417 29.1784 45.9419 27.8511 45.9501C27.6347 45.9511 27.5209 46.0307 27.5347 46.3061C27.5539 46.6765 27.5393 47.0499 27.5393 47.4223L27.5402 47.4213Z" fill="black"/>
<path d="M20.4256 54.2907C20.6797 54.1815 20.7118 53.9683 20.7099 53.7122C20.7044 52.9144 20.7063 52.1176 20.7118 51.3197C20.7136 51.0187 20.7329 50.7178 20.3018 50.7239C21.1154 50.7484 21.8932 50.5678 22.6563 50.7739C23.3929 50.9718 23.8093 51.5646 23.8258 52.3665C23.8442 53.2419 23.4177 53.955 22.726 54.2162C22.2674 54.3897 21.7987 54.3734 21.3254 54.3376C21.0255 54.3142 20.7255 54.307 20.4247 54.2928L20.4256 54.2907ZM21.2704 52.3451C21.2704 52.3451 21.2786 52.3451 21.2832 52.3451C21.2832 52.7522 21.275 53.1592 21.2878 53.5653C21.2933 53.7265 21.3006 53.903 21.4602 54.0071C21.9134 54.2999 22.8343 53.9836 23.0719 53.447C23.6066 52.239 22.8425 50.8871 21.6409 50.9126C21.3924 50.9177 21.241 50.9963 21.2658 51.3279C21.2906 51.6646 21.2713 52.0053 21.2713 52.3451H21.2704Z" fill="black"/>
<path d="M2.07665 50.7097C1.3878 50.6525 0.692524 50.6974 0 50.6974C0.357727 50.726 0.361396 50.9913 0.358645 51.2861C0.351307 52.084 0.351307 52.8818 0.358645 53.6796C0.360479 53.9439 0.347638 54.1806 0.0798007 54.2887C0.487977 54.3112 0.89707 54.3306 1.30525 54.3561C1.64279 54.3775 1.97484 54.3489 2.29955 54.2449C3.06545 53.999 3.53325 53.1981 3.46996 52.2492C3.41492 51.4269 2.86824 50.775 2.07665 50.7097ZM2.78569 53.2246C2.64168 53.9235 1.71526 54.3398 1.13831 54.0276C0.986961 53.9459 0.959443 53.797 0.956692 53.649C0.946602 53.2103 0.931926 52.3309 0.920919 52.3309C0.920919 52.0095 0.940181 51.685 0.916333 51.3657C0.887898 50.9821 1.06401 50.8913 1.35478 50.9178C2.65819 51.0392 3.03426 52.0187 2.78661 53.2236L2.78569 53.2246Z" fill="black"/>
<path d="M7.63108 49.3813C6.6056 49.3813 5.86262 48.5876 5.86721 47.4979C5.87179 46.4124 6.66246 45.588 7.68703 45.5992C8.74095 45.6115 9.43072 46.3318 9.43072 47.4214C9.43072 48.5682 8.68408 49.3813 7.63016 49.3813H7.63108ZM8.79324 47.6173C8.78498 47.0939 8.6795 46.6072 8.32636 46.2298C7.71088 45.5707 6.80739 45.8584 6.57716 46.7695C6.41389 47.4173 6.50195 48.0152 6.83582 48.56C7.12751 49.0355 7.66502 49.2232 8.12548 49.0538C8.54283 48.8998 8.79232 48.3601 8.79232 47.6173H8.79324Z" fill="black"/>
<path d="M42.8129 50.5678C43.7292 51.5034 44.5465 52.339 45.372 53.1827C45.3711 52.5073 45.3812 51.7748 45.3133 51.0392C45.2895 50.7759 45.0858 50.8229 44.9088 50.7055H46.0003C45.7343 50.83 45.7215 51.0463 45.7224 51.2861C45.7298 52.3002 45.7252 53.3143 45.7252 54.3438C44.8749 53.4306 44.086 52.5838 43.2972 51.737C43.255 51.7625 43.2119 51.787 43.1697 51.8125C43.1826 52.4961 43.1633 53.1766 43.2293 53.8642C43.2578 54.1611 43.4605 54.1428 43.7357 54.2887H42.502C42.8074 54.1968 42.8184 53.9602 42.8157 53.6786C42.8046 52.6624 42.8111 51.6472 42.8111 50.5668L42.8129 50.5678Z" fill="black"/>
<path d="M40.2885 54.3601C39.2401 54.3621 38.5118 53.601 38.5127 52.5042C38.5136 51.3973 39.2703 50.5933 40.3151 50.5902C41.3745 50.5861 42.0689 51.2983 42.0725 52.39C42.0771 53.5551 41.3498 54.357 40.2885 54.3591V54.3601ZM41.4332 52.6318C41.4351 52.1686 41.3452 51.7788 41.1663 51.4707C40.8966 51.0065 40.4343 50.7769 39.9418 50.8983C39.5052 51.0055 39.2988 51.3442 39.2043 51.8207C39.1328 52.1798 39.1337 52.5185 39.2144 52.8725C39.4107 53.7357 39.9088 54.1713 40.6086 54.0693C41.1241 53.9938 41.4305 53.4602 41.4332 52.6328V52.6318Z" fill="black"/>
<path d="M18.0438 49.314H16.6927C16.9927 49.1926 16.9624 48.9181 16.9624 48.657C16.9624 47.8765 16.9624 47.096 16.9661 46.3155C16.967 46.0369 16.9725 45.7635 16.6377 45.6911C17.0899 45.6911 17.543 45.6931 17.9952 45.6911C18.386 45.689 18.7116 45.8115 18.8895 46.2389C19.073 46.6787 18.9161 47.0613 18.6511 47.3459C18.4098 47.604 18.4447 47.752 18.6465 47.9856C18.9097 48.2907 19.1445 48.6253 19.3894 48.9487C19.461 49.0426 19.6197 49.1232 19.5527 49.2548C19.4647 49.4313 19.2913 49.3895 19.1482 49.316C18.94 49.2079 18.7602 49.0559 18.6235 48.8447C18.4364 48.556 18.2392 48.2764 18.0585 47.9836C17.9384 47.7897 17.7687 47.8061 17.6091 47.8428C17.433 47.8836 17.5173 48.0672 17.5155 48.1836C17.5128 48.4192 17.5559 48.657 17.5458 48.8916C17.5329 49.2008 17.8008 49.1416 18.042 49.312L18.0438 49.314ZM17.5118 46.7103C17.5118 46.845 17.5274 46.9817 17.5091 47.1133C17.4504 47.5388 17.6632 47.5816 17.964 47.552C18.3053 47.5183 18.3731 47.2286 18.4071 46.9541C18.4557 46.5726 18.3896 46.2002 18.0301 46.0155C17.6742 45.8329 17.5146 45.9625 17.5118 46.4063C17.5118 46.5073 17.5118 46.6083 17.5118 46.7093V46.7103Z" fill="black"/>
<path d="M22.793 45.701H23.9771C23.7341 45.7857 23.7166 45.9939 23.7194 46.2234C23.7267 46.8682 23.7139 47.513 23.735 48.1568C23.7542 48.7353 24.0138 49.0424 24.4578 49.0761C24.987 49.1159 25.3071 48.871 25.3548 48.2558C25.4099 47.5487 25.3714 46.8325 25.386 46.1214C25.3915 45.851 25.176 45.8418 25.0164 45.7051H26.1107C25.7933 45.8572 25.7933 46.1214 25.7887 46.3856C25.7777 46.9621 25.7795 47.5385 25.7493 48.114C25.7089 48.8649 25.2769 49.3291 24.6146 49.3719C23.7341 49.4291 23.3406 49.1301 23.17 48.2976C23.0351 47.6426 23.1314 46.9805 23.1058 46.3224C23.0947 46.0459 23.125 45.7612 22.793 45.701Z" fill="black"/>
<path d="M4.17377 47.703C4.70486 47.4847 5.0048 47.2164 4.94059 46.6654C4.91399 46.4389 4.84703 46.2369 4.68285 46.0931C4.54801 45.9757 4.38382 45.8758 4.21963 45.9319C4.01876 46.0002 4.11599 46.2226 4.11415 46.3747C4.10406 47.1378 4.12241 47.901 4.10406 48.6631C4.09581 48.9978 4.15451 49.2232 4.49756 49.2926H3.13086C3.44181 49.1936 3.52069 49.011 3.52161 48.7662C3.52344 47.9193 3.53812 47.0715 3.53628 46.2247C3.53628 45.9717 3.4574 45.7544 3.1758 45.6911C3.69313 45.6911 4.21138 45.6666 4.72687 45.7003C5.03782 45.7207 5.30382 45.8849 5.4304 46.2471C5.57533 46.6624 5.45792 47.0225 5.22219 47.3266C4.99104 47.6245 4.67 47.7377 4.17286 47.702L4.17377 47.703Z" fill="black"/>
<path d="M35.3776 46.6562C35.0676 46.0389 34.6631 45.8033 33.9614 45.8981C33.4275 45.9706 33.0845 46.4379 33.0056 47.198C32.923 47.9978 33.3404 48.7651 33.9935 49.011C34.5622 49.2252 34.996 49.0528 35.3088 48.4876C35.4501 49.1313 35.318 49.3323 34.741 49.364C34.4053 49.3823 34.0669 49.4078 33.7385 49.3232C32.8451 49.0936 32.2865 48.2764 32.3635 47.3387C32.4452 46.3501 33.0808 45.6982 34.0366 45.6023C34.4227 45.5635 34.7942 45.6696 35.1731 45.7043C35.2877 45.7145 35.3776 45.7676 35.3767 45.9216C35.3749 46.1665 35.3767 46.4113 35.3767 46.6552L35.3776 46.6562Z" fill="black"/>
<path d="M36.1839 53.3857C36.194 54.2386 36.0995 54.359 35.4254 54.356C35.1236 54.3549 34.8218 54.3896 34.5182 54.2927C33.6441 54.0142 33.1432 53.3122 33.1818 52.3787C33.2194 51.4666 33.7615 50.8004 34.6246 50.6228C35.097 50.5259 35.5648 50.6198 36.0317 50.6983C36.1729 50.7218 36.1986 50.8146 36.1968 50.9463C36.194 51.1768 36.1968 51.4084 36.1371 51.6574C35.9922 51.3493 35.8831 51.0677 35.5593 50.9616C35.2547 50.8616 34.953 50.8565 34.6567 50.9116C34.1724 51.0013 33.8449 51.5615 33.8211 52.2634C33.7926 53.1061 34.2118 53.805 34.875 54.0213C35.4299 54.2019 35.8069 54.0356 36.1821 53.3847L36.1839 53.3857Z" fill="black"/>
<path d="M24.4546 54.3214C24.694 54.152 24.6656 53.9245 24.6665 53.7153C24.6711 52.8838 24.6711 52.0523 24.6729 51.2208C24.6729 50.9678 24.6656 50.7219 24.3418 50.7025H26.3276C26.3185 50.88 26.3065 51.0892 26.2946 51.3106C26.113 51.0719 25.4122 50.8321 25.3434 50.9953C25.2003 51.3361 25.2866 51.7258 25.2948 52.0921C25.2985 52.2655 25.8076 52.2829 26.2469 52.1278C26.3405 52.2533 26.2644 52.387 26.2579 52.5155C26.2515 52.6298 26.2249 52.743 26.2001 52.8961C26.0516 52.5737 25.6104 52.3982 25.371 52.5196C25.2801 52.5655 25.2856 52.6441 25.2847 52.7257C25.2829 52.9124 25.2664 53.1011 25.2875 53.2848C25.3178 53.5541 25.1343 53.9408 25.5526 54.0235C25.9103 54.0949 26.2552 54.0765 26.401 53.5501C26.5074 54.2306 26.4276 54.3428 25.8947 54.3397C25.4287 54.3377 24.9628 54.2428 24.4555 54.3183L24.4546 54.3214Z" fill="black"/>
<path d="M19.5831 51.4759C19.4115 50.7913 18.9089 50.877 18.7016 51.0167C18.4044 51.2177 18.498 51.8074 18.6245 52.0676C18.7924 52.4135 19.2263 52.2115 19.5757 52.1247C19.6124 52.3808 19.5482 52.6165 19.484 52.9797C19.3813 52.3594 19.0235 52.5124 18.7585 52.5308C18.4383 52.5522 18.6438 52.8685 18.5878 53.044C18.5732 53.0889 18.5759 53.1481 18.5878 53.195C18.6548 53.4725 18.4016 53.8877 18.8254 54.0061C19.1923 54.1081 19.5601 54.1051 19.7243 53.4572C19.7739 54.302 19.7372 54.355 19.1703 54.3377C18.719 54.3244 18.2677 54.2938 17.7917 54.2357C18.0127 54.1132 17.9678 53.9051 17.9696 53.7255C17.977 52.9103 17.9696 52.0962 17.9815 51.281C17.9861 50.9861 17.954 50.7474 17.6357 50.6709C18.2448 50.6709 18.8548 50.6852 19.4638 50.6627C19.6629 50.6556 19.661 50.729 19.6317 50.8933C19.6087 51.0249 19.6078 51.1616 19.5831 51.4738V51.4759Z" fill="black"/>
<path d="M5.9238 52.1471C5.92655 52.2124 5.93756 52.2777 5.93022 52.3389C5.91004 52.5052 5.88252 52.6705 5.84033 52.9562C5.69632 52.3338 5.32116 52.5664 5.03406 52.5225C5.01113 52.5195 4.97903 52.5419 4.96068 52.5623C4.90748 52.6225 4.90657 53.8724 4.97353 53.9152C5.27438 54.1091 5.58166 54.1019 5.8816 53.906C5.93022 53.8744 5.96966 53.8234 6.01644 53.7795C6.1366 54.2152 6.0036 54.3743 5.60001 54.3488C5.08818 54.3172 4.57361 54.3417 4.02692 54.2917C4.29568 54.1733 4.31769 53.955 4.31586 53.7081C4.31219 52.8766 4.31586 52.0461 4.3232 51.2146C4.32595 50.9493 4.28834 50.7361 3.99023 50.6708C4.59929 50.6708 5.20834 50.68 5.8174 50.6647C5.97425 50.6606 6.00543 50.7106 5.98342 50.8616C5.9614 51.0105 5.94673 51.1605 5.91829 51.3972C5.7376 50.7891 5.22944 50.8667 5.03223 51.0166C4.76164 51.2217 4.8341 51.8145 4.96894 52.0828C5.13955 52.4226 5.57616 52.1818 5.9238 52.1461V52.1471Z" fill="black"/>
<path d="M10.9674 54.3274C10.7583 54.3131 10.5492 54.2988 10.3281 54.2825C10.9473 53.1081 11.2206 51.7767 11.8076 50.5146C12.1553 51.1503 12.3048 51.8022 12.5488 52.4062C12.7102 52.8061 12.8561 53.2142 12.9955 53.6244C13.0964 53.9203 13.2239 54.1723 13.6687 54.2131C13.2532 54.3865 12.956 54.2998 12.6662 54.3049C12.5662 54.307 12.524 54.2621 12.5204 54.1213C12.5167 53.9631 12.4387 53.806 12.3874 53.6509C12.1984 53.0837 11.8416 52.8857 11.3151 53.0551C11.1142 53.1204 10.9014 53.8387 10.9895 54.159C10.9821 54.2151 10.9757 54.2712 10.9684 54.3274H10.9674ZM11.7031 51.6084C11.4261 52.4239 11.5533 52.8078 12.0847 52.7602C11.9654 52.4001 11.8498 52.0512 11.7031 51.6084Z" fill="black"/>
<path d="M16.0214 48.5896C16.0223 49.367 16.0223 49.363 15.394 49.3558C14.9207 49.3507 14.4483 49.3548 13.941 49.3221C14.2529 49.1456 14.2768 48.8436 14.2777 48.5325C14.2795 47.8183 14.2813 47.1051 14.2813 46.3909C14.2813 46.0798 14.274 45.7696 13.9053 45.691C14.4088 45.691 14.9115 45.691 15.4151 45.691C15.8223 45.691 15.9553 45.909 15.8141 46.345C15.6857 46.0696 15.1014 45.841 14.9032 45.9992C14.7831 46.0951 14.8464 46.2522 14.8445 46.3797C14.828 47.3296 14.9418 47.4173 15.8223 47.1306C15.8682 47.3796 15.8544 47.6183 15.793 47.9019C15.6361 47.7754 15.6554 47.5469 15.4371 47.5163C14.9216 47.4459 14.8418 47.5 14.8418 48.0937C14.8418 48.1448 14.8344 48.1968 14.8427 48.2468C14.8886 48.5202 14.6932 48.8855 15.0748 49.0334C15.4215 49.1681 15.7581 49.0181 16.0205 48.5876L16.0214 48.5896Z" fill="black"/>
<path d="M15.0039 50.6903C15.5377 50.6903 16.0743 50.7342 16.6036 50.6781C17.1237 50.623 17.0833 50.8903 16.976 51.2862C16.8036 51.0597 16.1578 50.876 15.9854 50.9893C15.9267 51.028 15.8698 52.0187 15.9202 52.1269C15.9789 52.2554 16.488 52.2656 16.9457 52.134C16.9164 52.3778 16.8898 52.6023 16.8476 52.9614C16.6788 52.3258 16.3009 52.5645 16.0074 52.5207C15.9863 52.5176 15.9395 52.5523 15.9386 52.5717C15.9294 52.9084 15.9193 53.2461 15.9212 53.5828C15.923 53.8878 15.8661 54.2449 16.3036 54.2816H15.0369C15.313 54.1857 15.3084 53.947 15.3066 53.696C15.302 52.8818 15.2956 52.0667 15.3139 51.2525C15.3204 50.9556 15.2516 50.7709 15.0039 50.6893V50.6903Z" fill="black"/>
<path d="M8.01758 50.6963H9.24761C8.96235 50.7677 8.91373 51.0014 8.91281 51.2697C8.91281 51.9655 8.89905 52.6624 8.9174 53.3572C8.92382 53.6194 8.86053 53.9663 9.25495 54.004C9.62001 54.0397 9.9915 54.1101 10.1346 53.5745C10.318 54.2887 10.285 54.3427 9.68972 54.3397C9.14579 54.3366 8.60553 54.255 8.0295 54.2785C8.30101 54.1673 8.34228 53.9561 8.33953 53.6949C8.33036 52.9144 8.33128 52.1329 8.33953 51.3524C8.34228 51.0595 8.35879 50.7759 8.01941 50.6953L8.01758 50.6963Z" fill="black"/>
<path d="M40.8799 49.2344C41.1982 49.1834 41.2284 48.9324 41.2312 48.6814C41.2394 47.8682 41.233 47.0551 41.2404 46.2419C41.2422 45.9706 41.1404 45.8032 40.9028 45.7145H42.1787C41.8247 45.8083 41.7843 46.0399 41.7916 46.3358C41.8081 46.9796 41.7889 47.6234 41.7999 48.2672C41.8045 48.5508 41.6898 48.9252 42.0833 49.015C42.4631 49.1017 42.8465 49.1323 43.0363 48.5906C43.1244 49.3201 43.0941 49.3568 42.4695 49.3558C41.9558 49.3548 41.4412 49.3558 40.9276 49.3558C40.912 49.316 40.8955 49.2752 40.8799 49.2354V49.2344Z" fill="black"/>
<path d="M21.1502 45.7041H22.472C22.117 45.8184 22.0748 46.0368 22.0794 46.3163C22.0941 47.1315 22.0858 47.9467 22.084 48.7619C22.0822 49.6566 21.7391 50.1994 20.9365 50.5167C21.618 49.9586 21.5208 49.1485 21.53 48.3772C21.5382 47.7151 21.5282 47.0519 21.5291 46.3898C21.5291 46.0745 21.5318 45.7643 21.1502 45.7031V45.7041Z" fill="black"/>
<path d="M31.6128 49.3313C31.3422 49.3201 31.0524 49.3639 30.8121 49.264C30.7405 49.2344 30.9515 48.8416 30.9451 48.5773C30.9267 47.8152 30.9451 47.0531 30.9368 46.2909C30.9341 46.0604 30.9533 45.79 30.6543 45.7114H31.8651C31.6624 45.8206 31.511 45.8859 31.5165 46.1512C31.5358 47.0827 31.5229 48.0141 31.5294 48.9467C31.5294 49.0211 31.5853 49.0946 31.6156 49.1681C31.6147 49.2221 31.6137 49.2772 31.6119 49.3313H31.6128Z" fill="black"/>
<path d="M36.75 50.6934H37.958C37.6957 50.7882 37.6581 50.9984 37.6636 51.2718C37.6773 52.0697 37.6663 52.8686 37.67 53.6664C37.6718 54.1061 37.6773 54.1061 38.0791 54.2592C37.6517 54.352 37.2187 54.2408 36.7784 54.2908C37.1738 54.0918 37.0967 53.7174 37.1004 53.3919C37.1206 51.7561 37.0038 50.8566 36.75 50.6934Z" fill="black"/>
<path d="M40.0068 50.2963C40.2169 49.9872 40.4425 49.8454 40.6452 49.675C40.7104 49.6199 40.7847 49.5087 40.8736 49.6209C40.9305 49.6934 40.9819 49.7913 40.992 49.8841C41.0094 50.0351 40.8746 49.9954 40.8012 50.0219C40.5618 50.1096 40.3196 50.1892 40.0068 50.2953V50.2963Z" fill="black"/>
<path d="M14.0922 26.2143C14.0555 26.3469 14.0188 26.4785 13.9812 26.6101C13.8042 26.4775 13.7501 26.2612 13.6758 26.0582C13.707 26.0327 13.7372 26.0082 13.7675 25.9827C13.8757 26.0592 13.984 26.1367 14.0922 26.2132V26.2143Z" fill="#67B101"/>
<path d="M12.6611 28.9722C12.7795 28.9742 12.8978 28.9762 13.0161 28.9783C12.9877 29.1415 13.0583 29.2874 13.1537 29.4976C12.8262 29.4119 12.8006 29.1283 12.6611 28.9722Z" fill="#363636"/>
<path d="M31.6143 49.3312C31.6152 49.2771 31.6161 49.222 31.6179 49.1679C31.7307 49.1935 31.9298 49.072 31.9234 49.2924C31.9206 49.4036 31.7271 49.3598 31.6143 49.3312Z" fill="black"/>
<path d="M13.4668 25.7317C13.5448 25.7246 13.6236 25.7184 13.7016 25.7113C13.7236 25.8021 13.7447 25.8929 13.7667 25.9837C13.7365 26.0092 13.7062 26.0337 13.675 26.0592C13.553 25.9909 13.4751 25.8888 13.4668 25.7327V25.7317Z" fill="#67B101"/>
<path d="M25.7296 16.3403L25.7443 16.3771C25.7443 16.3771 25.7158 16.4015 25.7168 16.4015L25.7012 16.3679L25.7296 16.3414V16.3403Z" fill="#909090"/>
<path d="M15.0987 18.3048L11.5371 20.3259L11.5805 20.4204L15.142 18.3993L15.0987 18.3048Z" fill="#67B101"/>
<path d="M17.4043 23.0956L13.8428 25.1167L13.8861 25.2112L17.4477 23.1901L17.4043 23.0956Z" fill="#67B101"/>
<path d="M33.0762 18.1003L33.2954 22.4466C33.4495 22.4466 33.6036 22.4506 33.7577 22.4629C34.2026 22.4996 34.4887 22.3323 34.5961 21.8385C34.1952 20.404 33.632 19.0389 33.0964 17.6462C33.0899 17.7972 33.0826 17.9493 33.0762 18.1003Z" fill="#EE1719"/>
<path d="M32.9046 17.4769C32.9046 17.4677 32.9027 17.4575 32.9018 17.4484L31.8213 22.3436C31.8552 22.3466 31.8928 22.3538 31.935 22.3629C32.3551 22.4619 32.7789 22.4476 33.2017 22.4466L32.988 18.2095C32.9578 17.9656 32.9266 17.7218 32.9046 17.4769Z" fill="#EE1719"/>
<path d="M36.9825 8.25078C34.1445 10.1179 31.3074 11.987 28.4731 13.8602C27.5632 14.4621 26.6634 15.0834 25.7544 15.6874C25.5554 15.8201 25.5077 15.9292 25.7361 16.07C25.9727 16.0007 26.213 15.9843 26.4543 16.0251C26.9578 16.02 27.4614 16.0149 27.965 16.0088C28.2392 16.0058 28.5759 16.1068 28.774 15.968C29.0565 15.768 28.8244 15.3936 28.7868 15.0926C28.763 14.9018 28.8474 14.7641 28.9877 14.6692C29.1143 14.5845 29.217 14.6611 29.3207 14.7437C29.4628 14.857 29.4326 15.008 29.395 15.1538C29.3711 15.2477 29.3115 15.3304 29.2849 15.4242C29.1565 15.8711 29.2399 16.0058 29.6674 16.0088C30.5085 16.0149 31.3496 16.0109 32.1907 16.0109C31.3781 16.2659 30.559 16.4414 29.7398 16.6189C29.55 16.6597 29.3335 16.6557 29.3363 16.9811C29.3436 17.983 29.2271 19.0063 29.3711 19.9827C29.5848 21.4305 29.6105 22.8374 29.3564 24.277C29.1904 25.2136 29.3482 25.4432 30.1178 25.8747C30.6241 26.1594 31.1561 26.3644 31.7165 26.4757C31.8633 26.5052 32.0137 26.5736 32.1357 26.4002C32.6861 25.6135 33.152 24.7698 33.6061 23.8587C33.3419 23.824 33.1447 23.8107 32.9521 23.7709C32.3724 23.6526 31.9642 23.2975 31.7055 22.6987C31.6074 22.4722 31.6239 22.3712 31.7211 22.3467L32.8484 17.2413L32.9016 17.2556C32.9172 17.2046 32.9539 17.1668 33.0337 17.1587C33.1805 17.1434 33.1777 17.3046 33.2135 17.4076C33.5978 18.5105 33.9748 19.6175 34.3701 20.7163C34.4692 20.9918 34.5077 21.3111 34.7398 21.5131C36.622 17.174 37.7107 12.6154 37.8814 7.73657C37.4979 7.85186 37.2494 8.07428 36.9815 8.25078H36.9825ZM32.886 16.8873C32.7026 16.8954 32.4723 16.6893 32.4677 16.3833C32.4632 16.0996 32.5824 15.9384 32.9154 15.9343C33.0951 15.9466 33.2502 16.0874 33.2667 16.3639C33.285 16.6608 33.0429 16.8801 32.886 16.8873Z" fill="#EE1719"/>
<path d="M26.4194 22.3127C26.1736 21.1261 25.9067 19.9447 25.6921 18.751C25.6214 18.3561 25.482 17.6787 25.271 17.3859L25.083 22.4698C25.1656 22.4759 25.2334 22.4831 25.3142 22.4892C25.4701 22.478 25.5847 22.4647 25.7416 22.4616C25.9672 22.4117 26.2149 22.4851 26.4194 22.3127Z" fill="#EE1719"/>
<path d="M23.6274 22.4087C24.0402 22.427 24.0649 22.4597 24.7208 22.4536C24.8785 22.4668 24.8648 22.4617 24.9666 22.4648C24.9739 22.4648 24.9804 22.4648 24.9877 22.4658L25.1666 17.6185C25.1867 17.3063 25.1702 17.4186 25.1537 17.5257L23.5137 22.3434C23.5421 22.3821 23.5815 22.4066 23.6265 22.4087H23.6274Z" fill="#EE1719"/>
<path d="M30.7619 26.9286C29.4181 26.9265 28.0743 26.9306 26.7306 26.9225C26.5939 26.9225 26.3756 27.0153 26.3435 26.7878C26.3114 26.5582 26.5361 26.5745 26.6737 26.5358C27.147 26.4031 27.6157 26.2532 28.056 26.0154C28.8934 25.5635 29.0072 25.3237 28.8778 24.3096C28.8677 24.2269 28.8356 24.1473 28.8182 24.0657C28.6357 23.1812 28.5348 22.2752 28.6715 21.3865C28.8888 19.9725 28.898 18.5553 28.8953 17.131C28.8953 16.8229 28.821 16.6709 28.5348 16.6199C27.8423 16.4944 27.1543 16.3403 26.4645 16.1975C26.2215 16.1526 25.9775 16.1087 25.7344 16.0638C25.7326 16.1567 25.7298 16.2485 25.728 16.3414L25.7427 16.3771C25.7427 16.3771 25.7142 16.4015 25.7152 16.4015C25.5675 16.676 25.3125 16.9586 25.1043 16.6464C24.8273 16.2301 24.6374 16.4118 24.387 16.5883C24.0935 16.7943 23.799 16.9974 23.5046 17.2014C23.4055 17.2769 23.4606 17.7044 23.4606 18.1493C23.4606 19.0695 23.4606 19.9908 23.4606 20.9121C23.4688 21.1019 23.4762 21.712 23.4762 22.1548C23.7477 21.6202 23.9916 20.4887 24.2292 19.9429L24.4833 19.1981C24.4833 19.1981 24.4787 19.2032 24.4769 19.2062C24.5383 19.0573 24.5613 19.0001 24.6227 18.789L24.6695 18.6512C24.7658 18.0554 25.0208 17.5177 25.2134 16.8566C25.4748 17.3953 25.5913 17.8585 25.684 18.3462C25.917 19.5705 26.1903 20.7856 26.4425 22.0058C26.4618 22.1007 26.4471 22.2038 26.448 22.3027C26.5416 22.5884 26.4499 22.8312 26.3077 23.0659C25.7546 23.98 24.5475 24.1086 23.7697 23.3362C23.6789 23.2465 23.6229 23.1016 23.4936 23.0802V35.5997C23.6422 35.5059 23.7504 35.4487 23.8486 35.3753C25.8656 33.8582 27.7313 32.137 29.3924 30.1546C30.0611 29.3558 30.7995 28.6089 31.1214 27.5081C31.2948 26.9143 31.3498 26.9316 30.7619 26.9316V26.9286Z" fill="#EE1719"/>
</svg>
