<svg width="83" height="82" viewBox="0 0 83 82" fill="none" xmlns="http://www.w3.org/2000/svg">
<path d="M81.2183 49.5684C78.5572 42.6064 72.7942 37.2797 65.632 35.1625V1.70779C65.632 0.76464 64.8653 0 63.9197 0H17.5883C17.4367 0.00864543 17.287 0.0373034 17.1431 0.0853335L16.9891 0.170667C16.8046 0.25424 16.6364 0.369992 16.4926 0.512161L1.08299 15.8818C0.94029 16.0254 0.824397 16.193 0.740607 16.377V16.5307C0.663078 16.67 0.605452 16.8195 0.569336 16.9747V17.0771V64.8942C0.569336 65.8373 1.33596 66.602 2.28157 66.602H10.8424V80.2638C10.8424 81.207 11.609 81.9716 12.5546 81.9716H22.8277C23.7733 81.9716 24.5399 81.207 24.5399 80.2638V66.602H36.4225C41.1384 78.9399 54.9893 85.1288 67.3595 80.4252C79.7293 75.7214 85.9343 61.9064 81.2183 49.5684ZM15.9789 5.82349V15.3698H6.4078L15.9789 5.82349ZM21.1154 78.556H14.2667V73.4328H21.1154V78.556ZM21.1154 70.0174H14.2667V40.9859H21.1154V70.0174ZM15.3283 37.5703L17.6912 32.8569L20.054 37.5703H15.3283ZM35.3778 63.1864H24.5397V39.2781C24.5356 39.0165 24.471 38.7595 24.3515 38.5267L19.2149 28.2803C18.7931 27.4361 17.7652 27.093 16.9187 27.5136C16.5858 27.6791 16.316 27.9483 16.15 28.2803L11.0135 38.5267C10.8999 38.761 10.8413 39.0179 10.8422 39.2781V63.1864H3.99363V18.7852H17.691C18.6366 18.7852 19.4032 18.0206 19.4032 17.0774V3.41558H62.2077V34.4282C49.1038 32.55 36.9544 41.6228 35.0714 54.6927C34.6642 57.5195 34.7679 60.3961 35.3778 63.1864ZM58.7834 78.556C47.4361 78.556 38.2373 69.381 38.2373 58.0632C38.2373 46.7453 47.4361 37.5703 58.7834 37.5703C70.1306 37.5703 79.3295 46.7453 79.3295 58.0632C79.3295 69.381 70.1306 78.556 58.7834 78.556Z" fill="white"/>
<path d="M53.717 20H22.6309V22H53.717V20Z" fill="white"/>
<path d="M53.717 25H22.6309V27H53.717V25Z" fill="white"/>
<path d="M53.717 30H22.6309V32H53.717V30Z" fill="white"/>
<path d="M62.2402 48.5714H60.4852V45H56.9756V48.5714H55.2206C53.2823 48.5714 51.7109 50.1704 51.7109 52.1429V55.7143C51.7109 57.6867 53.2823 59.2857 55.2206 59.2857H62.2402V62.8571H55.2206V61.0713H51.7109V62.8571C51.7109 64.8296 53.2823 66.4286 55.2206 66.4286H56.9756V70H60.4852V66.4286H62.2402C64.1785 66.4286 65.7499 64.8296 65.7499 62.8571V59.2859C65.7499 57.3134 64.1785 55.7145 62.2402 55.7145H55.2206V52.143H62.2402V53.9288H65.7499V52.143C65.7499 50.1704 64.1785 48.5714 62.2402 48.5714Z" fill="white"/>
</svg>
