<svg width="99" height="98" viewBox="0 0 99 98" fill="none" xmlns="http://www.w3.org/2000/svg">
<path d="M49.0102 12.4529C50.0777 12.4529 50.9432 11.5899 50.9432 10.5253V1.92766C50.9432 0.863053 50.0777 0 49.0102 0C47.9426 0 47.0771 0.863053 47.0771 1.92766V10.5253C47.0773 11.5899 47.9428 12.4529 49.0102 12.4529Z" fill="white"/>
<path d="M96.2603 66.2238L92.8455 62.828C91.6307 61.6181 90.0117 60.9517 88.2866 60.9517C87.1835 60.9517 86.1246 61.2254 85.1862 61.7382L78.7513 55.3287L79.0647 55.0165C81.6753 52.408 81.6743 48.1693 79.0645 45.5696C78.1319 44.6379 76.9681 44.0166 75.6996 43.7551C75.8743 43.1539 75.9662 42.5242 75.9662 41.8797C75.9662 40.0891 75.2687 38.4101 74.0061 37.1562C73.0733 36.2244 71.9098 35.6031 70.6413 35.3416C70.8159 34.7404 70.9079 34.1109 70.9079 33.4662C70.9079 31.6754 70.2104 29.9966 68.9457 28.7408C67.9906 27.7895 66.8165 27.1873 65.5837 26.931C66.2432 24.6634 65.6796 22.1122 63.8908 20.3252C62.4017 18.8466 60.3812 18.2111 58.434 18.4171L45.6825 16.0101C43.7378 15.6422 41.3092 15.399 39.7762 16.7934C39.6794 16.8814 39.5808 16.9827 39.4836 17.0954C37.1067 16.2314 34.3343 16.7459 32.4309 18.642C31.1681 19.8997 30.4725 21.5779 30.4725 23.3676C30.4725 24.0123 30.5641 24.6418 30.7385 25.2432C29.4713 25.5045 28.3092 26.125 27.3796 27.0537C26.1143 28.3103 25.4166 29.9866 25.4153 31.7742C25.4147 32.4204 25.5067 33.052 25.6821 33.655C24.4143 33.9156 23.2514 34.535 22.3189 35.4637C21.0537 36.7242 20.3569 38.4034 20.3569 40.1921C20.3569 41.5622 20.7671 42.8674 21.5272 43.9699C20.5675 44.2943 19.6884 44.8343 18.9523 45.5675C16.34 48.1693 16.3391 52.4082 18.9541 55.0205L19.2663 55.3306L12.8306 61.7368C10.4389 60.6138 7.49205 61.0345 5.51834 63.0003L2.10144 66.3981C0.886088 67.6086 0.216989 69.2233 0.216797 70.9446C0.216797 72.6661 0.886088 74.281 2.10144 75.4917L6.36575 79.739C7.12103 80.4914 8.34502 80.4907 9.09934 79.7375C9.85385 78.9843 9.85309 77.7637 9.09781 77.0115L4.8335 72.7641C4.34943 72.282 4.08283 71.6358 4.08283 70.9448C4.08283 70.254 4.34943 69.608 4.83235 69.127L8.24944 65.729C9.10318 64.8786 10.4099 64.7519 11.4022 65.3435C11.4721 65.4482 11.5529 65.5477 11.6454 65.6402C11.8111 65.8057 12.0001 65.9326 12.2009 66.0255L31.7965 85.5381C31.8896 85.7404 32.0174 85.9308 32.1842 86.0973C32.3466 86.2595 32.5318 86.3848 32.7284 86.4771C33.1428 86.9443 33.3717 87.5411 33.3717 88.1777C33.3717 88.8687 33.1051 89.5147 32.6211 89.9969L29.2074 93.397C28.1988 94.3985 26.5581 94.3983 25.5525 93.4001L21.2882 89.1472C20.5333 88.3944 19.3095 88.3944 18.5546 89.1472C17.7997 89.9 17.7997 91.1204 18.5546 91.8732L22.822 96.1292C24.0781 97.3766 25.7276 98 27.3779 98C29.0285 98 30.68 97.3756 31.9376 96.1271L35.3533 92.7248C36.5687 91.5142 37.238 89.8995 37.238 88.1777C37.238 86.9491 36.8954 85.7758 36.2583 84.764L43.5013 77.5499C43.509 77.542 43.5167 77.5342 43.5245 77.5263C44.3539 76.6713 46.6635 76.8313 48.8971 76.986C50.484 77.0961 52.2533 77.2184 53.9819 77.0197L61.9136 84.92C61.3998 85.8543 61.1255 86.9089 61.1255 88.0072C61.1255 89.727 61.7948 91.3407 63.0102 92.5514L66.4261 95.9537C67.6407 97.1635 69.2597 97.83 70.9848 97.83C72.7098 97.83 74.3288 97.1637 75.5436 95.9537L96.2617 75.3181C97.477 74.1076 98.1463 72.4929 98.1463 70.7714C98.1461 69.0501 97.4768 67.4354 96.2603 66.2238ZM44.9627 19.7981L53.348 21.3808L48.329 26.384C47.5526 26.0119 46.4885 25.3178 45.3211 24.2042C43.7232 22.6799 42.5802 20.9199 42.4762 19.8222C42.476 19.8216 42.476 19.821 42.476 19.8205C42.476 19.8203 42.4758 19.8201 42.4758 19.8199C42.4683 19.741 42.4664 19.678 42.4673 19.63C42.7201 19.5688 43.3915 19.5008 44.9627 19.7981ZM35.1627 21.3697C36.142 20.3941 37.6633 20.2815 38.7698 21.0288C39.3969 23.6507 41.6397 26.027 42.6487 26.9898C43.3965 27.7033 45.7959 29.8427 48.2178 30.4307C48.5455 30.8991 48.7238 31.4574 48.7238 32.0466C48.7238 32.8055 48.4311 33.515 47.8977 34.0464C47.3658 34.5777 46.6531 34.8702 45.8908 34.8702C45.1282 34.8702 44.4155 34.5777 43.8812 34.0439L43.881 34.0437L43.88 34.0427L35.1625 25.3651C34.6311 24.8359 34.3383 24.1263 34.3383 23.3676C34.3385 22.6087 34.6312 21.8991 35.1627 21.3697ZM30.1117 29.7815C30.6435 29.2503 31.3554 28.9576 32.1166 28.9576C32.8788 28.9576 33.593 29.2509 34.1284 29.7841L41.1479 36.7703C42.2533 37.8743 42.2533 39.6709 41.1518 40.7711C40.617 41.3022 39.9019 41.5947 39.1382 41.5947C38.3744 41.5947 37.6593 41.3022 37.1268 40.7734L37.1266 40.7732L31.8013 35.4637C31.793 35.4555 31.784 35.4479 31.7756 35.4394L30.1095 33.7788C29.575 33.2463 29.2808 32.5354 29.2813 31.7771C29.2821 31.0212 29.5754 30.3139 30.1117 29.7815ZM25.051 38.1915C25.5832 37.6615 26.2967 37.3696 27.0602 37.3696C27.8174 37.3696 28.5247 37.6573 29.0547 38.1781L34.3963 43.5024C34.9289 44.0315 35.2224 44.7403 35.2224 45.4982C35.2224 46.256 34.9289 46.9648 34.3942 47.496C33.8621 48.0258 33.1495 48.3177 32.3873 48.3177C31.6239 48.3177 30.909 48.025 30.3761 47.496L28.4397 45.5672C28.4393 45.5666 28.4387 45.5662 28.4383 45.5658L25.0512 42.1921C24.5172 41.6602 24.2232 40.9497 24.2232 40.1917C24.2232 39.4339 24.5172 38.7232 25.051 38.1915ZM21.6844 48.2951C22.2189 47.7626 22.9333 47.4694 23.6959 47.4694C24.4583 47.4694 25.1725 47.7624 25.7069 48.2945L27.646 50.226C28.1788 50.755 28.4721 51.4638 28.4721 52.2218C28.4721 52.9798 28.1786 53.6884 27.642 54.2216C27.1101 54.7528 26.3974 55.0454 25.6351 55.0454C24.8725 55.0454 24.1598 54.753 23.6241 54.2178L23.3813 53.9766C23.3781 53.9734 23.3756 53.9699 23.3725 53.9668C23.3688 53.9634 23.365 53.9603 23.3614 53.9569L21.6863 52.293C20.5809 51.1884 20.58 49.3951 21.6844 48.2951ZM61.0768 70.2031C60.3223 69.4497 59.0983 69.4492 58.3432 70.2014L56.6234 71.9143C54.9892 73.5439 52.0282 73.3387 49.1647 73.1406C46.0551 72.9251 42.8395 72.7027 40.7587 74.8331L33.6387 81.9247L15.8339 64.1952L22.1349 57.923C23.1763 58.5597 24.3781 58.9009 25.6355 58.9009C27.4318 58.9009 29.1163 58.2065 30.3744 56.9495C31.641 55.6916 32.3387 54.0128 32.3387 52.222C32.3387 52.2053 32.3376 52.1889 32.3376 52.1722C32.3543 52.1724 32.371 52.1734 32.3877 52.1734C34.1815 52.1734 35.8646 51.481 37.1245 50.2262C38.3911 48.9683 39.0888 47.2892 39.0888 45.4986C39.0888 45.482 39.0877 45.4655 39.0877 45.4489C39.1046 45.4489 39.1215 45.45 39.1385 45.45C40.9318 45.45 42.6159 44.7585 43.8842 43.4988C45.2009 42.1837 45.8522 40.4522 45.8397 38.7244C45.857 38.7246 45.8742 38.7255 45.8915 38.7255C47.6879 38.7253 49.3721 38.0311 50.6322 36.7722C51.895 35.5145 52.5906 33.8362 52.5906 32.0466C52.5906 30.795 52.2493 29.5985 51.613 28.562L57.1357 23.0569C57.5472 22.6483 58.0547 22.3918 58.5865 22.286C58.6441 22.2798 58.7009 22.2706 58.7572 22.2595C59.6105 22.1422 60.5067 22.4048 61.1593 23.0529C62.2647 24.1572 62.2647 25.9537 61.1633 27.0539L59.4814 28.7243C59.4758 28.7299 59.4699 28.7348 59.4643 28.7404L57.5271 30.669C56.7716 31.4212 56.7708 32.6418 57.5253 33.395C58.28 34.1484 59.5038 34.149 60.2589 33.3967L61.9476 31.715C61.948 31.7147 61.9484 31.7143 61.9487 31.7139L62.204 31.4603C63.3125 30.365 65.1082 30.3673 66.2155 31.47C66.7484 31.9991 67.0418 32.7079 67.0418 33.4658C67.0418 34.2236 66.7484 34.9324 66.2113 35.4657L64.5198 37.156C64.5196 37.1562 64.5194 37.1564 64.5192 37.1567L62.5821 39.0806C61.8257 39.8318 61.8232 41.0524 62.5766 41.8066C63.3299 42.5609 64.5537 42.5632 65.3102 41.8121L67.256 39.8795C67.7879 39.3482 68.5006 39.0557 69.263 39.0557C70.0255 39.0557 70.7384 39.3482 71.2741 39.8833C71.8069 40.4126 72.1002 41.1213 72.1002 41.8793C72.1002 42.6371 71.8069 43.3459 71.271 43.878L67.8987 47.2423C67.144 47.9953 67.1441 49.2157 67.899 49.9684C68.2766 50.3447 68.771 50.5326 69.2656 50.5326C69.7605 50.5326 70.2553 50.3443 70.6326 49.9678L72.2854 48.319C72.2948 48.31 72.305 48.3022 72.3144 48.2928C72.8463 47.7614 73.5589 47.469 74.3213 47.469C75.0839 47.469 75.7966 47.7614 76.3303 48.2947C77.4346 49.3947 77.4336 51.1882 76.3303 52.2903L74.6499 53.9642C74.6493 53.9647 74.6486 53.9653 74.648 53.9659C74.6474 53.9665 74.6468 53.9672 74.6463 53.9678L71.9791 56.6243C71.2238 57.3768 71.223 58.5974 71.9774 59.3505C72.3549 59.7274 72.8501 59.916 73.3451 59.916C73.8394 59.916 74.3338 59.728 74.7111 59.3523L76.0157 58.0528L82.2685 64.281L64.4652 82.0133L58.0864 75.6597C58.5311 75.3745 58.9566 75.0392 59.356 74.6409L61.0748 72.9289C61.8305 72.1769 61.8313 70.9563 61.0768 70.2031ZM93.5294 72.5903L72.8113 93.2259C72.3267 93.7086 71.6779 93.9745 70.9846 93.9745C70.2914 93.9745 69.6426 93.7086 69.1578 93.2257L65.7418 89.8235C65.2578 89.3415 64.9912 88.6965 64.9912 88.0072C64.9912 87.3181 65.2578 86.6731 65.7418 86.1909L86.4599 65.5554C86.9447 65.0725 87.5933 64.8066 88.2868 64.8066C88.9801 64.8066 89.6288 65.0725 90.1148 65.5565L93.5296 68.9523C94.0137 69.4344 94.2803 70.0802 94.2803 70.7712C94.2801 71.4624 94.0135 72.1084 93.5294 72.5903Z" fill="white"/>
<path d="M23.3437 10.8279C23.7211 11.2034 24.2151 11.391 24.7092 11.391C25.2044 11.391 25.6998 11.2023 26.0773 10.825C26.8314 10.0714 26.8303 8.85104 26.0746 8.099L19.0308 1.08873C18.2754 0.336688 17.0514 0.337645 16.2973 1.09141C15.5431 1.84497 15.5443 3.06538 16.2999 3.81742L23.3437 10.8279Z" fill="white"/>
<path d="M73.3119 11.3909C73.8061 11.3909 74.3005 11.203 74.6779 10.8272L81.7163 3.81677C82.4716 3.06455 82.4723 1.84394 81.7178 1.09076C80.9635 0.337573 79.7397 0.336807 78.9842 1.08923L71.9458 8.09969C71.1906 8.85192 71.1898 10.0725 71.9443 10.8257C72.3219 11.2026 72.8169 11.3909 73.3119 11.3909Z" fill="white"/>
</svg>
