<svg width="97" height="103" viewBox="0 0 97 103" fill="none" xmlns="http://www.w3.org/2000/svg">
<path d="M3.98803 58.3667V89.0261L0.614612 100.813C0.466884 101.331 0.570965 101.888 0.89664 102.318C1.22147 102.748 1.72929 103 2.26901 103H9.1451C9.91313 103 10.588 102.491 10.7987 101.754L14.2367 89.7369C14.2795 89.5844 14.3022 89.4259 14.3022 89.2667V82.4H16.576L19.4593 89.5961V101.283C19.4593 102.231 20.2281 103 21.1783 103H28.0544C29.0037 103 29.7734 102.231 29.7734 101.283V89.2667C29.7726 89.0823 29.7423 88.8987 29.6836 88.7243L26.3354 78.6884V61.8H30.1839C31.0073 61.7958 31.8231 61.6416 32.5903 61.3448C33.3374 61.6332 34.1297 61.7874 34.9305 61.8H36.6495V78.6884L33.3004 88.7243C33.2417 88.8987 33.2115 89.0823 33.2115 89.2667V101.283C33.2115 102.231 33.9803 103 34.9305 103H41.8066C42.7559 103 43.5256 102.231 43.5256 101.283V89.5961L46.408 82.4H50.4017V89.2667C50.4017 89.4259 50.4235 89.5844 50.4663 89.7369L53.9044 101.754C54.1151 102.491 54.7899 103 55.5588 103H62.4349C62.9737 103 63.4816 102.748 63.8064 102.318C64.1321 101.888 64.2362 101.331 64.0884 100.813L60.7159 89.0261V61.8H62.4349C63.2524 61.7983 64.0632 61.65 64.8288 61.3641C65.5808 61.6474 66.3774 61.795 67.1807 61.8H71.03V78.6884L67.6809 88.7243C67.6222 88.8987 67.5919 89.0823 67.5919 89.2667V101.283C67.5919 102.231 68.3608 103 69.311 103H76.1871C77.1364 103 77.9061 102.231 77.9061 101.283V89.5961L80.7885 82.4H83.0632V89.2667C83.0632 89.4259 83.085 89.5844 83.1278 89.7369L86.5658 101.754C86.7765 102.491 87.4514 103 88.2202 103H95.0963C95.6352 103 96.143 102.748 96.4679 102.318C96.7935 101.888 96.8976 101.331 96.7499 100.813L93.3773 89.0261V58.3667C93.374 56.1311 92.2794 54.0373 90.4446 52.7565C92.3004 51.1421 93.3689 48.8077 93.3773 46.35V42.9167C93.3773 38.1766 89.5288 34.3333 84.7822 34.3333C80.0347 34.3333 76.1871 38.1766 76.1871 42.9167V46.35C76.1929 48.2134 76.8124 50.0231 77.9506 51.5H70.8286L70.0152 45.0055L71.777 43.2461C72.4485 42.5755 72.4485 41.4892 71.777 40.8186L67.2906 36.34C67.602 35.6862 67.8782 35.0165 68.1191 34.3333H74.468C75.4174 34.3333 76.1871 33.5647 76.1871 32.6167V22.3167C76.1871 21.3686 75.4174 20.6 74.468 20.6H68.1191C67.8782 19.9169 67.602 19.2471 67.2906 18.5933L71.777 14.1147C72.4485 13.4441 72.4485 12.3578 71.777 11.6872L64.4838 4.40315C63.8123 3.73341 62.7245 3.73341 62.053 4.40315L57.5682 8.88342C56.9127 8.57327 56.242 8.29666 55.5588 8.0561V1.71667C55.5588 0.768644 54.7891 0 53.8398 0H43.5256C42.5754 0 41.8066 0.768644 41.8066 1.71667V8.0561C41.1225 8.29666 40.4518 8.57327 39.7963 8.88342L35.3116 4.40315C34.6401 3.73341 33.5522 3.73341 32.8807 4.40315L25.5875 11.6872C24.916 12.3578 24.916 13.4441 25.5875 14.1147L30.0739 18.5933C29.859 19.0468 29.6576 19.5078 29.4737 19.9822C29.3948 20.1859 29.3176 20.3921 29.2454 20.6H22.8973C21.9471 20.6 21.1783 21.3686 21.1783 22.3167V32.6167C21.1783 33.5647 21.9471 34.3333 22.8973 34.3333H29.2454C29.4863 35.0165 29.7625 35.6862 30.0739 36.34L25.5875 40.8186C24.916 41.4892 24.916 42.5755 25.5875 43.2461L27.3493 45.0072L26.536 51.5H19.4139C20.5521 50.0231 21.1716 48.2134 21.1783 46.35V42.9167C21.1783 38.1766 17.3298 34.3333 12.5832 34.3333C7.83569 34.3333 3.98803 38.1766 3.98803 42.9167V46.35C3.99558 48.8077 5.06494 51.1421 6.91994 52.7565C5.08508 54.0373 3.99055 56.1311 3.98803 58.3667ZM58.9968 58.3667C58.0467 58.3667 57.2778 59.1353 57.2778 60.0833V89.2667C57.2778 89.4259 57.2996 89.5844 57.3424 89.7369L60.1552 99.5667H56.8548L53.8398 89.0261V80.6833C53.8398 79.7353 53.07 78.9667 52.1207 78.9667H45.2446C44.5412 78.9667 43.9084 79.3942 43.6473 80.0463L40.2093 88.6296C40.1287 88.8325 40.0867 89.0487 40.0876 89.2667V99.5667H36.6495V89.545L39.9977 79.509C40.0565 79.3346 40.0867 79.1511 40.0876 78.9667V60.0833C40.0876 59.1353 39.3179 58.3667 38.3685 58.3667H36.0989C36.6243 57.4949 36.945 56.5159 37.0373 55.5033L37.0843 54.9333H60.2802L60.3272 55.5033C60.4196 56.5159 60.7402 57.4949 61.2656 58.3667H58.9968ZM43.5256 42.9167C43.5256 40.0726 45.8339 37.7667 48.6827 37.7667C51.5307 37.7667 53.8398 40.0726 53.8398 42.9167V46.35C53.8398 49.1941 51.5307 51.5 48.6827 51.5C45.8339 51.5 43.5256 49.1941 43.5256 46.35V42.9167ZM41.8066 27.4667C41.8066 23.6746 44.8845 20.6 48.6827 20.6C52.48 20.6 55.5588 23.6746 55.5588 27.4667C55.5588 31.2588 52.48 34.3333 48.6827 34.3333C44.8845 34.3333 41.8066 31.2588 41.8066 27.4667ZM79.6251 42.9167C79.6251 40.0726 81.9334 37.7667 84.7822 37.7667C87.6302 37.7667 89.9393 40.0726 89.9393 42.9167V46.35C89.9393 49.1941 87.6302 51.5 84.7822 51.5C81.9334 51.5 79.6251 49.1941 79.6251 46.35V42.9167ZM67.6054 53.4296C67.7128 54.2887 68.4439 54.9333 69.311 54.9333H86.5012C88.3999 54.9333 89.9393 56.4706 89.9393 58.3667V89.2667C89.9393 89.4259 89.9611 89.5844 90.0039 89.7369L92.8166 99.5667H89.5162L86.5012 89.0261V80.6833C86.5012 79.7353 85.7315 78.9667 84.7822 78.9667H79.6251C78.9217 78.9667 78.2888 79.3942 78.0278 80.0463L74.5898 88.6296C74.5092 88.8325 74.4672 89.0487 74.468 89.2667V99.5667H71.03V89.545L74.3782 79.509C74.437 79.3346 74.4672 79.1511 74.468 78.9667V60.0833C74.468 59.1353 73.6983 58.3667 72.749 58.3667H67.1807C65.3962 58.3566 63.9113 56.9937 63.7527 55.2183L62.5843 41.2H66.0735L67.6054 53.4296ZM24.6163 30.9V24.0333H30.5037C31.2725 24.0333 31.9474 23.5237 32.1572 22.7852C32.3083 22.253 32.482 21.7299 32.6734 21.2211C32.9571 20.4944 33.2904 19.7878 33.6714 19.1063C34.0517 18.434 33.935 17.5908 33.386 17.0468L29.2354 12.901L34.0961 8.04604L38.2544 12.1969C38.8 12.7442 39.6444 12.8608 40.3175 12.4819C41.4817 11.8348 42.7181 11.3251 44.0015 10.9647C44.7385 10.7526 45.2455 10.0787 45.2446 9.31258V3.43333H52.1207V9.31258C52.1207 10.0812 52.6319 10.7552 53.3714 10.9647C54.6548 11.3251 55.8912 11.8348 57.0554 12.4819C57.7294 12.8608 58.5729 12.7442 59.1185 12.1969L63.2768 8.04604L68.1384 12.901L63.9818 17.0535C63.4337 17.5975 63.3171 18.4408 63.6964 19.113C64.3444 20.2764 64.8548 21.5111 65.2157 22.7919C65.4247 23.5312 66.1004 24.0417 66.8693 24.0417H72.749V30.9084H66.8609C66.092 30.9092 65.4163 31.4189 65.2073 32.1582C64.8464 33.4398 64.336 34.6745 63.688 35.8371C63.3473 36.4599 63.4278 37.2285 63.8903 37.7667H60.7159C60.2349 37.7667 59.7758 37.9678 59.4501 38.3216C59.1655 38.6409 59.0119 39.0558 59.0203 39.4833H58.9968V51.5H55.5135C56.6516 50.0231 57.2711 48.2134 57.2778 46.35V42.9167C57.2686 40.3182 56.0741 37.8664 54.0336 36.2545C57.9887 33.8572 59.8614 29.1238 58.6149 24.6746C57.3693 20.2253 53.3084 17.1491 48.6827 17.1491C44.0561 17.1491 39.9952 20.2253 38.7496 24.6746C37.5031 29.1238 39.3758 33.8572 43.3309 36.2545C41.2904 37.8664 40.0968 40.3182 40.0876 42.9167V46.35C40.0934 48.2134 40.7129 50.0231 41.8511 51.5H38.3685V39.4833H38.3442C38.3526 39.0558 38.199 38.6409 37.9144 38.3216C37.5888 37.9678 37.1296 37.7667 36.6495 37.7667H33.4742C33.9409 37.2269 34.0214 36.4532 33.6773 35.8287C33.0285 34.6653 32.519 33.4306 32.1572 32.1498C31.9482 31.4105 31.2725 30.9 30.5037 30.9H24.6163ZM7.42608 42.9167C7.42608 40.0726 9.73434 37.7667 12.5832 37.7667C15.4311 37.7667 17.7402 40.0726 17.7402 42.9167V46.35C17.7402 49.1941 15.4311 51.5 12.5832 51.5C9.73434 51.5 7.42608 49.1941 7.42608 46.35V42.9167ZM7.36061 89.7369C7.40342 89.5844 7.42608 89.4259 7.42608 89.2667V58.3667C7.42608 56.4706 8.96464 54.9333 10.8641 54.9333H28.0544C28.9206 54.9333 29.6517 54.2887 29.7591 53.4296L31.291 41.2H34.7802L33.6118 55.2183C33.4524 56.9928 31.9683 58.3558 30.1839 58.3667H24.6163C23.6662 58.3667 22.8973 59.1353 22.8973 60.0833V78.9667C22.8973 79.1511 22.9275 79.3346 22.9863 79.509L26.3354 89.545V99.5667H22.8973V89.2667C22.8973 89.0487 22.8553 88.8325 22.7748 88.6296L19.3367 80.0463C19.0757 79.3942 18.4436 78.9667 17.7402 78.9667H12.5832C11.633 78.9667 10.8641 79.7353 10.8641 80.6833V89.0261L7.84828 99.5667H4.54789L7.36061 89.7369Z" fill="white"/>
</svg>
