<svg width="94" height="93" viewBox="0 0 94 93" fill="none" xmlns="http://www.w3.org/2000/svg">
<path d="M82.5737 61.1006L58.4024 68.1809C57.6663 64.1398 54.7462 60.8146 50.6779 59.5931L34.9132 54.8664C34.6036 54.7741 34.2728 54.7801 33.9654 54.8831L19.2943 59.8523V56.3512C19.2943 55.4945 18.5984 54.8013 17.7401 54.8013H1.80318C0.944897 54.8013 0.249023 55.4945 0.249023 56.3512V86.4052C0.249023 87.2618 0.944897 87.9551 1.80318 87.9551H17.7401C18.5984 87.9551 19.2943 87.2618 19.2943 86.4052V84.0582C22.297 85.017 29.2882 87.0264 46.111 91.4634C46.9435 91.6798 47.7919 91.188 48.0112 90.3616C48.2305 89.5337 47.7358 88.6861 46.9063 88.4666C29.9419 83.9926 21.7294 81.6421 19.2943 80.8097V63.1272L34.4943 57.9782L49.7824 62.5627C53.0011 63.527 55.196 66.329 55.4294 69.6273C54.2094 70.786 50.0822 73.9153 42.2841 72.3764C41.4356 72.1993 40.6237 72.7547 40.4567 73.5947C40.2898 74.4332 40.8369 75.249 41.6785 75.4155C43.3738 75.7515 44.9295 75.8938 46.3508 75.8938C53.08 75.8938 56.7777 72.7003 57.8823 71.5631L83.4502 64.0732C85.89 63.3603 88.4625 64.4061 89.7025 66.6234C90.4523 67.9629 90.5965 69.5037 90.11 70.9597C89.6236 72.4142 88.5824 73.5584 87.1778 74.1835L51.5058 90.0255C50.7219 90.3736 50.369 91.2893 50.7181 92.0718C51.0683 92.8607 52.0048 93.2021 52.77 92.8558L88.442 77.0138C90.6215 76.0466 92.3046 74.1971 93.059 71.9389C93.814 69.6808 93.5803 67.1925 92.4177 65.1129C90.4659 61.6228 86.4136 59.9685 82.5737 61.1006ZM16.1859 84.8554H3.35734V57.901H16.1859V84.8554Z" fill="white"/>
<path d="M75.6314 26.7516L74.4271 30.4461C74.2965 30.8471 73.9255 31.1166 73.5035 31.1166H69.6075C67.8067 31.1166 66.2837 32.2199 65.7274 33.9272C65.1712 35.6344 65.7532 37.4204 67.2095 38.4738L70.361 40.7577C70.7033 41.0059 70.8452 41.4403 70.7147 41.8414L69.5104 45.5374C68.9541 47.2447 69.5362 49.0291 70.9924 50.084C72.4487 51.1389 74.3299 51.142 75.7877 50.084L78.9408 47.8001C79.2792 47.5519 79.7383 47.5534 80.0814 47.8001L83.2337 50.084C83.9622 50.6122 84.7969 50.8756 85.6309 50.8756C86.4657 50.8756 87.3004 50.6122 88.0289 50.084C89.4852 49.0291 90.0673 47.2447 89.511 45.5374L88.3067 41.8414C88.1762 41.4403 88.3181 41.0059 88.6596 40.7577L91.8111 38.4753C93.2681 37.4204 93.8502 35.6344 93.2939 33.9272C92.7377 32.2199 91.2147 31.1165 89.4139 31.1165H85.5179C85.0959 31.1165 84.7248 30.8471 84.5943 30.4476L83.39 26.7515C82.8337 25.0458 81.3107 23.9409 79.5107 23.9409C77.7107 23.9409 76.1876 25.0443 75.6314 26.7516ZM78.5879 27.7096C78.7844 27.1057 79.299 27.0406 79.5107 27.0406C79.7224 27.0406 80.2369 27.1057 80.4335 27.7081L81.6378 31.4056C82.1864 33.0871 83.7452 34.2162 85.5179 34.2162H89.4139C90.0513 34.2162 90.2722 34.6839 90.3374 34.8852C90.4034 35.0865 90.4998 35.5935 89.9845 35.9674L86.8315 38.2513C85.398 39.2911 84.803 41.1179 85.3501 42.7979L86.5545 46.4939C86.751 47.0978 86.3738 47.452 86.2023 47.5761C86.0293 47.7002 85.5748 47.9484 85.061 47.5776L81.9094 45.2937C81.1916 44.7731 80.3507 44.5127 79.5107 44.5127C78.6698 44.5127 77.8298 44.7731 77.1127 45.2937L73.9603 47.5776C73.4466 47.9484 72.9928 47.7017 72.819 47.5761C72.6475 47.452 72.2703 47.0978 72.4669 46.4939L73.6712 42.7979C74.2183 41.1179 73.6234 39.2911 72.1891 38.2513L69.036 35.9659C68.5215 35.5935 68.6179 35.0865 68.6839 34.8852C68.7492 34.6839 68.97 34.2162 69.6075 34.2162H73.5035C75.2762 34.2162 76.8349 33.0871 77.3836 31.4041L78.5879 27.7096Z" fill="white"/>
<path d="M42.9937 26.7516L41.7894 30.4461C41.6588 30.8471 41.2878 31.1166 40.8658 31.1166H36.9698C35.169 31.1166 33.646 32.2199 33.0897 33.9272C32.5335 35.6344 33.1155 37.4204 34.5718 38.4738L37.7233 40.7577C38.0656 41.0059 38.2075 41.4403 38.077 41.8414L36.8727 45.5374C36.3164 47.2447 36.8985 49.0291 38.3547 50.084C39.811 51.1389 41.6922 51.142 43.15 50.084L46.3031 47.8001C46.6415 47.5519 47.1006 47.5534 47.4437 47.8001L50.596 50.084C51.3245 50.6122 52.1592 50.8756 52.9932 50.8756C53.828 50.8756 54.6627 50.6122 55.3913 50.084C56.8475 49.0291 57.4296 47.2447 56.8733 45.5374L55.669 41.8414C55.5385 41.4403 55.6804 41.0059 56.0219 40.7577L59.1734 38.4753C60.6305 37.4204 61.2125 35.6344 60.6562 33.9272C60.1 32.2199 58.577 31.1165 56.7762 31.1165H52.8802C52.4582 31.1165 52.0871 30.8471 51.9566 30.4476L50.7523 26.7515C50.1961 25.0458 48.673 23.9409 46.873 23.9409C45.073 23.9409 43.5499 25.0443 42.9937 26.7516ZM45.9502 27.7096C46.1467 27.1057 46.6613 27.0406 46.873 27.0406C47.0847 27.0406 47.5992 27.1057 47.7958 27.7081L49.0001 31.4056C49.5487 33.0871 51.1075 34.2162 52.8802 34.2162H56.7762C57.4136 34.2162 57.6345 34.6839 57.6997 34.8852C57.7657 35.0865 57.8621 35.5935 57.3468 35.9674L54.1938 38.2513C52.7603 39.2911 52.1653 41.1179 52.7124 42.7979L53.9168 46.4939C54.1133 47.0978 53.7362 47.452 53.5647 47.5761C53.3916 47.7002 52.9371 47.9484 52.4233 47.5776L49.2717 45.2937C48.5539 44.7731 47.713 44.5127 46.873 44.5127C46.0321 44.5127 45.1921 44.7731 44.475 45.2937L41.3226 47.5776C40.8089 47.9484 40.3551 47.7017 40.1813 47.5761C40.0098 47.452 39.6326 47.0978 39.8292 46.4939L41.0335 42.7979C41.5806 41.1179 40.9857 39.2911 39.5514 38.2513L36.3983 35.9659C35.8838 35.5935 35.9802 35.0865 36.0462 34.8852C36.1115 34.6839 36.3323 34.2162 36.9698 34.2162H40.8658C42.6385 34.2162 44.1972 33.0871 44.7459 31.4041L45.9502 27.7096Z" fill="white"/>
<path d="M51.1088 14.5328L54.2604 16.8167C54.6019 17.0649 54.7438 17.4993 54.6133 17.9004L53.4097 21.5964C52.8535 23.3037 53.4347 25.0881 54.891 26.143C56.348 27.1995 58.23 27.1995 59.6871 26.143L62.8401 23.8591C63.1801 23.614 63.6385 23.6124 63.98 23.8607L67.133 26.1431C67.8616 26.6713 68.6963 26.9346 69.5303 26.9346C70.3651 26.9346 71.1998 26.6713 71.9283 26.1431C73.3846 25.0881 73.9666 23.3037 73.4104 21.5964L72.2053 17.8989C72.0755 17.4993 72.2174 17.065 72.5589 16.8167L75.7113 14.5328C77.1675 13.4779 77.7488 11.6935 77.1926 9.98623C76.6363 8.27898 75.1133 7.17561 73.3133 7.17561H69.4165C68.9946 7.17561 68.6242 6.9062 68.4937 6.50511L67.2894 2.81212C66.7332 1.10335 65.2101 0 63.4093 0C61.6093 0 60.0863 1.10335 59.53 2.81062L58.3257 6.50665C58.1952 6.90621 57.8248 7.17562 57.4029 7.17562H53.5061C51.7054 7.17562 50.1831 8.27898 49.6268 9.98624C49.0706 11.6935 49.6526 13.4794 51.1088 14.5328ZM52.5833 10.9442C52.6486 10.743 52.8694 10.2753 53.5061 10.2753H57.4029C59.1763 10.2753 60.735 9.14467 61.2822 7.46465L62.4865 3.76863C62.683 3.16473 63.1975 3.09965 63.4093 3.09965C63.6217 3.09965 64.1362 3.16473 64.3328 3.76863L65.5371 7.46314C66.0843 9.14466 67.643 10.2753 69.4164 10.2753H73.3132C73.9499 10.2753 74.1707 10.7429 74.2367 10.9442C74.302 11.1455 74.3984 11.6526 73.8839 12.0264L70.7315 14.3103C69.2965 15.3501 68.7016 17.1769 69.2495 18.8569L70.4538 22.5529C70.6503 23.1568 70.2732 23.511 70.1017 23.6351C69.9294 23.7607 69.4749 24.0105 68.9603 23.6351L65.808 21.3527C64.373 20.3114 62.447 20.3114 61.012 21.3527L57.8604 23.6351C57.3452 24.0105 56.8906 23.7607 56.7183 23.6351C56.5468 23.511 56.1697 23.1568 56.3662 22.5529L57.569 18.8584C58.1177 17.1784 57.5227 15.3501 56.0885 14.3103L52.9354 12.0249C52.4209 11.6526 52.5173 11.1456 52.5833 10.9442Z" fill="white"/>
<path d="M18.0359 14.5329L21.1883 16.8168C21.5298 17.065 21.6717 17.4994 21.5411 17.9004L20.3368 21.5965C19.7806 23.3037 20.3626 25.0882 21.8189 26.1431C22.5474 26.6713 23.3821 26.9347 24.2169 26.9347C25.0509 26.9347 25.8856 26.6713 26.6142 26.1446L29.768 23.8592C30.1087 23.614 30.5671 23.614 30.9078 23.8592L34.0609 26.1446C35.5164 27.198 37.3992 27.1995 38.8562 26.1431C40.3124 25.0882 40.8937 23.3037 40.3375 21.5965L39.1332 17.8989C39.0034 17.4994 39.1453 17.065 39.486 16.8168L42.6376 14.5344C44.0946 13.4794 44.6767 11.6935 44.1204 9.98623C43.5642 8.27898 42.0419 7.17561 40.2411 7.17561H36.3443C35.9224 7.17561 35.5521 6.9062 35.4216 6.50511L34.2173 2.81212C33.661 1.10335 32.138 0 30.3379 0C28.5372 0 27.0141 1.10335 26.4579 2.81212L25.2536 6.50663C25.123 6.9062 24.7527 7.17561 24.3308 7.17561H20.434C18.634 7.17561 17.1109 8.27896 16.5547 9.98623C15.9984 11.6935 16.5797 13.4779 18.0359 14.5329ZM19.5104 10.9443C19.5764 10.743 19.7973 10.2753 20.434 10.2753H24.3307C26.1042 10.2753 27.6629 9.14472 28.21 7.4647L29.4144 3.77019C29.6109 3.16629 30.1254 3.0997 30.3379 3.0997C30.5496 3.0997 31.0641 3.16477 31.2607 3.77019L32.465 7.46318C33.0121 9.14471 34.5708 10.2753 36.3443 10.2753H40.2411C40.8778 10.2753 41.0986 10.743 41.1638 10.9443C41.2299 11.1456 41.3262 11.6526 40.811 12.0264L37.6579 14.3103C36.2244 15.3501 35.6294 17.1785 36.1773 18.857L37.3809 22.553C37.5774 23.1569 37.2003 23.5111 37.0288 23.6352C36.858 23.7608 36.402 24.0075 35.8874 23.6367L32.7359 21.3528C32.018 20.8321 31.1779 20.5718 30.3371 20.5718C29.497 20.5718 28.657 20.8321 27.9398 21.3513L24.7868 23.6367C24.2738 24.009 23.8184 23.7608 23.6454 23.6352C23.4739 23.5111 23.0968 23.1569 23.2933 22.553L24.4969 18.8585C25.0455 17.177 24.4506 15.3501 23.0156 14.3103L19.8632 12.0264C19.3487 11.6526 19.4452 11.1456 19.5104 10.9443Z" fill="white"/>
<path d="M1.93507 38.4738L5.08663 40.7577C5.42887 41.0059 5.57078 41.4403 5.44026 41.8414L4.23595 45.5374C3.6797 47.2447 4.26175 49.0291 5.71801 50.084C7.1735 51.1389 9.05473 51.142 10.5133 50.084L13.6664 47.8001C14.0056 47.5519 14.4647 47.5534 14.8069 47.8001L17.9593 50.084C18.6878 50.6122 19.5225 50.8756 20.3565 50.8756C21.1913 50.8756 22.026 50.6122 22.7545 50.084C24.2108 49.0291 24.7928 47.2447 24.2366 45.5374L23.0323 41.8414C22.9018 41.4403 23.0437 41.0059 23.3852 40.7577L26.5367 38.4753C27.9937 37.4204 28.5758 35.6344 28.0195 33.9272C27.4633 32.2199 25.9402 31.1165 24.1395 31.1165H20.2434C19.8215 31.1165 19.4504 30.8471 19.3199 30.4476L18.1156 26.7515C17.5593 25.0458 16.0363 23.9409 14.2363 23.9409C12.4362 23.9409 10.9132 25.0443 10.357 26.7515L9.15264 30.446C9.02213 30.8471 8.65104 31.1165 8.2291 31.1165H4.33308C2.5323 31.1165 1.00926 32.2199 0.453008 33.9272C-0.10324 35.6344 0.478807 37.4204 1.93507 38.4738ZM3.40954 34.8852C3.4748 34.6839 3.69563 34.2163 4.33308 34.2163H8.2291C10.0018 34.2163 11.5605 33.0872 12.1092 31.4041L13.3135 27.7096C13.51 27.1057 14.0245 27.0406 14.2363 27.0406C14.448 27.0406 14.9625 27.1057 15.1591 27.7081L16.3634 31.4056C16.912 33.0872 18.4707 34.2163 20.2434 34.2163H24.1395C24.7769 34.2163 24.9977 34.6839 25.063 34.8852C25.129 35.0865 25.2254 35.5936 24.7101 35.9674L21.557 38.2513C20.1236 39.2911 19.5286 41.1179 20.0757 42.7979L21.28 46.4939C21.4766 47.0978 21.0994 47.452 20.9279 47.5761C20.7557 47.7002 20.3011 47.9484 19.7866 47.5776L16.635 45.2937C15.9172 44.7731 15.0763 44.5127 14.2363 44.5127C13.3954 44.5127 12.5554 44.7731 11.8382 45.2937L8.68591 47.5776C8.17141 47.9484 7.7176 47.7017 7.54457 47.5761C7.37307 47.452 6.99591 47.0978 7.19246 46.4939L8.39678 42.7979C8.94392 41.1179 8.34897 39.2911 6.91472 38.2513L3.76163 35.9659C3.24713 35.5936 3.34352 35.0865 3.40954 34.8852Z" fill="white"/>
</svg>
