<svg width="53" height="53" viewBox="0 0 53 53" fill="none" xmlns="http://www.w3.org/2000/svg">
<circle cx="26.7079" cy="26.2919" r="26.2919" fill="#727272"/>
<path d="M26.7069 24.4116L41.2713 15.1369C40.457 13.9678 39.104 13.2006 37.5744 13.2006H15.8394C14.3098 13.2006 12.9568 13.9678 12.1426 15.1369L26.7069 24.4116Z" fill="white"/>
<path d="M27.1894 26.2391C27.0418 26.3331 26.8737 26.3801 26.7056 26.3801C26.5375 26.3801 26.3694 26.3331 26.2218 26.2391L11.4234 16.8153C11.3656 17.1027 11.335 17.3997 11.335 17.7038V34.3279C11.335 36.811 13.3551 38.8311 15.8381 38.8311H37.5731C40.0561 38.8311 42.0762 36.811 42.0762 34.3279V17.7038C42.0762 17.3997 42.0456 17.1027 41.9878 16.8154L27.1894 26.2391Z" fill="white"/>
</svg>
