<svg width="47" height="47" viewBox="0 0 47 47" fill="none" xmlns="http://www.w3.org/2000/svg">
<path fill-rule="evenodd" clip-rule="evenodd" d="M5.93713 0.919189C2.91272 0.919189 0.460938 3.37097 0.460938 6.39538V41.443C0.460938 44.4674 2.91272 46.9192 5.93713 46.9192H23.4609C24.0657 46.9192 24.5562 46.4287 24.5562 45.824V29.3954C24.5562 28.7906 24.0657 28.3001 23.4609 28.3001H19.08V22.824H23.4609C24.0657 22.824 24.5562 22.3335 24.5562 21.7287V15.1573C24.5562 11.528 27.4982 8.58586 31.1276 8.58586H37.699V14.062H35.5086C33.089 14.062 31.1276 16.0235 31.1276 18.443V21.7287C31.1276 22.3335 31.6181 22.824 32.2228 22.824H37.3422L35.7775 28.3001H32.2228C31.6181 28.3001 31.1276 28.7906 31.1276 29.3954V45.824C31.1276 46.4287 31.6181 46.9192 32.2228 46.9192H40.9847C44.0091 46.9192 46.4609 44.4674 46.4609 41.443V6.39538C46.4609 3.37097 44.0091 0.919189 40.9847 0.919189H5.93713Z" fill="black"/>
</svg>
