<svg width="34" height="33" viewBox="0 0 34 33" fill="none" xmlns="http://www.w3.org/2000/svg">
<path d="M16.7117 15.8971C16.9173 15.6915 17.2254 15.628 17.4954 15.7357L31.7843 20.7103C32.043 20.8135 32.2202 21.0556 32.2403 21.3336C32.2605 21.6116 32.12 21.8766 31.8787 22.0158L28.2729 24.3174L32.6014 28.6458C32.7378 28.7821 32.8145 28.9673 32.8145 29.1602C32.8145 29.3532 32.7378 29.5381 32.6014 29.6745L30.4891 31.7868C30.205 32.0708 29.7445 32.0708 29.4605 31.7867L25.1321 27.4579L22.8307 31.064C22.6913 31.3054 22.4264 31.4458 22.1485 31.4257C21.8706 31.4057 21.6285 31.2285 21.5253 30.9697L16.5505 16.6809C16.4427 16.4109 16.5062 16.1027 16.7117 15.8971Z" stroke="white" stroke-width="2" stroke-miterlimit="10" stroke-linejoin="round"/>
<path d="M22.8213 13.84C21.9094 11.268 19.3935 9.41991 16.4327 9.41991C12.7024 9.41991 9.67836 12.3535 9.67836 15.9722C9.67836 18.829 11.5631 21.2588 14.1921 22.1553" stroke="white" stroke-width="2" stroke-miterlimit="10" stroke-linecap="round" stroke-linejoin="round"/>
<path d="M27.0508 12.4286C25.5351 8.154 21.3537 5.08242 16.4328 5.08242C10.233 5.08242 5.20707 9.95799 5.20707 15.9723C5.20707 20.7204 8.33948 24.7587 12.7089 26.2488" stroke="white" stroke-width="2" stroke-miterlimit="10" stroke-linecap="round" stroke-linejoin="round"/>
<path d="M31.0312 11.0999C28.9474 5.22281 23.1984 0.999661 16.4326 0.999661C7.90856 0.999661 0.998417 7.70307 0.998417 15.9722C0.998417 22.5003 5.30511 28.0526 11.3127 30.1012" stroke="white" stroke-width="2" stroke-miterlimit="10" stroke-linecap="round" stroke-linejoin="round"/>
</svg>
