<svg width="48" height="48" viewBox="0 0 48 48" fill="none" xmlns="http://www.w3.org/2000/svg">
<path d="M28.5668 23.9597C28.5668 26.5043 26.5038 28.5673 23.9592 28.5673C21.4146 28.5673 19.3516 26.5043 19.3516 23.9597C19.3516 21.4151 21.4146 19.3521 23.9592 19.3521C26.5038 19.3521 28.5668 21.4151 28.5668 23.9597Z" fill="black"/>
<path d="M31.1695 11.0583H16.7504C13.6117 11.0583 11.0586 13.6115 11.0586 16.7501V31.1692C11.0586 34.3079 13.6117 36.861 16.7504 36.861H31.1695C34.3081 36.861 36.8612 34.3079 36.8612 31.1692V16.7501C36.8612 13.6115 34.3081 11.0583 31.1695 11.0583ZM23.9599 31.0744C20.0368 31.0744 16.8452 27.8828 16.8452 23.9597C16.8452 20.0366 20.0368 16.845 23.9599 16.845C27.883 16.845 31.0746 20.0366 31.0746 23.9597C31.0746 27.8828 27.883 31.0744 23.9599 31.0744ZM32.1181 17.2244C31.3322 17.2244 30.6952 16.5874 30.6952 15.8015C30.6952 15.0155 31.3322 14.3785 32.1181 14.3785C32.9041 14.3785 33.541 15.0155 33.541 15.8015C33.541 16.5874 32.9041 17.2244 32.1181 17.2244Z" fill="black"/>
<path d="M35.2842 0H12.6349C5.66818 0 0 5.66818 0 12.6349V35.2842C0 42.251 5.66818 47.9192 12.6349 47.9192H35.2842C42.251 47.9192 47.9192 42.251 47.9192 35.2842V12.6349C47.9192 5.66818 42.251 0 35.2842 0ZM39.4959 31.0726C39.4959 35.7171 35.7171 39.4959 31.0726 39.4959H16.8466C12.2021 39.4959 8.4233 35.7171 8.4233 31.0726V16.8466C8.4233 12.2021 12.2021 8.4233 16.8466 8.4233H31.0726C35.7171 8.4233 39.4959 12.2021 39.4959 16.8466V31.0726Z" fill="black"/>
</svg>
