<svg width="31" height="31" viewBox="0 0 31 31" fill="none" xmlns="http://www.w3.org/2000/svg">
<path fill-rule="evenodd" clip-rule="evenodd" d="M2.90625 22.7354C2.77903 22.7354 2.65305 22.7604 2.53552 22.8091C2.41798 22.8578 2.31118 22.9291 2.22122 23.0191C2.13127 23.109 2.05992 23.2158 2.01123 23.3334C1.96255 23.4509 1.9375 23.5769 1.9375 23.7041C1.9375 24.7516 2.44731 25.7059 3.20898 26.4722C3.97065 27.2385 4.99433 27.8655 6.21552 28.3851C8.65789 29.4244 11.9109 30.0312 15.5 30.0312C19.0891 30.0312 22.3421 29.4244 24.7845 28.3851C26.0057 27.8655 27.0293 27.2385 27.791 26.4722C28.5527 25.7059 29.0625 24.7516 29.0625 23.7041C29.0625 23.5769 29.0375 23.4509 28.9888 23.3334C28.9401 23.2158 28.8687 23.109 28.7788 23.0191C28.6888 22.9291 28.582 22.8578 28.4645 22.8091C28.3469 22.7604 28.221 22.7354 28.0938 22.7354C27.9665 22.7354 27.8406 22.7604 27.723 22.8091C27.6055 22.8578 27.4987 22.9291 27.4087 23.0191C27.3188 23.109 27.2474 23.2158 27.1987 23.3334C27.15 23.4509 27.125 23.5769 27.125 23.7041C27.125 24.1364 26.9302 24.5901 26.4174 25.1061C25.9045 25.6221 25.0836 26.1508 24.0258 26.6009C21.9101 27.5012 18.8663 28.0938 15.5 28.0938C12.1337 28.0938 9.0899 27.5012 6.97424 26.6009C5.91642 26.1508 5.09552 25.6221 4.58264 25.1061C4.06976 24.5901 3.875 24.1364 3.875 23.7041C3.875 23.5769 3.84995 23.4509 3.80127 23.3334C3.75258 23.2158 3.68123 23.109 3.59128 23.0191C3.50132 22.9291 3.39452 22.8578 3.27698 22.8091C3.15945 22.7604 3.03347 22.7354 2.90625 22.7354Z" fill="#939393"/>
<path fill-rule="evenodd" clip-rule="evenodd" d="M15.5 0.96875C11.2313 0.96875 7.75 4.45003 7.75 8.71875C7.75 9.94739 8.23738 11.2626 8.90039 12.677C9.5634 14.0914 10.4288 15.5763 11.2901 16.938C13.0127 19.6613 14.7318 21.9009 14.7318 21.9009C14.8223 22.0187 14.9386 22.114 15.0718 22.1797C15.205 22.2453 15.3515 22.2794 15.5 22.2794C15.6485 22.2794 15.795 22.2453 15.9282 22.1797C16.0614 22.114 16.1777 22.0187 16.2682 21.9009C16.2682 21.9009 17.9873 19.6613 19.7099 16.938C20.5712 15.5763 21.4366 14.0914 22.0996 12.677C22.7626 11.2626 23.25 9.94739 23.25 8.71875C23.25 4.45003 19.7687 0.96875 15.5 0.96875ZM15.5 4.84375C17.0936 4.84375 18.4062 6.1564 18.4062 7.75C18.4062 9.3436 17.0936 10.6562 15.5 10.6562C13.9064 10.6562 12.5938 9.3436 12.5938 7.75C12.5938 6.1564 13.9064 4.84375 15.5 4.84375Z" fill="#939393"/>
<path fill-rule="evenodd" clip-rule="evenodd" d="M21.9785 17.4072C21.7346 17.3264 21.4686 17.3459 21.2391 17.4612C21.0095 17.5765 20.8351 17.7783 20.7543 18.0222C20.6736 18.266 20.693 18.532 20.8083 18.7616C20.9236 18.9912 21.1254 19.1655 21.3693 19.2463C22.3989 19.5869 23.1751 20.0072 23.6379 20.4005C24.1007 20.7938 24.2188 21.0951 24.2188 21.3125C24.2188 21.5203 24.123 21.7741 23.7609 22.1166C23.3987 22.4592 22.7875 22.8344 21.9899 23.1535C20.3945 23.7916 18.0704 24.2187 15.5 24.2187C12.9296 24.2187 10.6055 23.7916 9.01013 23.1535C8.21247 22.8344 7.60133 22.4592 7.23914 22.1166C6.87693 21.7741 6.78125 21.5203 6.78125 21.3125C6.78125 21.0954 6.89908 20.795 7.36023 20.4024C7.82137 20.0098 8.5946 19.5888 9.62128 19.2482C9.86515 19.1674 10.0669 18.9931 10.1823 18.7635C10.2976 18.5339 10.317 18.2679 10.2362 18.024C10.155 17.7805 9.98048 17.5792 9.75094 17.4642C9.52141 17.3493 9.25566 17.3301 9.01202 17.411C7.81929 17.8066 6.83973 18.3001 6.10388 18.9266C5.36803 19.553 4.84375 20.3762 4.84375 21.3125C4.84375 22.1747 5.29077 22.9397 5.909 23.5243C6.52721 24.109 7.33383 24.5707 8.28925 24.9529C10.2001 25.7172 12.7202 26.1562 15.5 26.1562C18.2798 26.1562 20.7999 25.7172 22.7108 24.9529C23.6662 24.5707 24.4728 24.109 25.091 23.5243C25.7092 22.9397 26.1562 22.1747 26.1562 21.3125C26.1562 20.3748 25.6301 19.5516 24.8923 18.9247C24.1546 18.2977 23.1743 17.8028 21.9785 17.4072Z" fill="#939393"/>
</svg>
