<svg width="26" height="18" viewBox="0 0 26 18" fill="none" xmlns="http://www.w3.org/2000/svg">
<path d="M12.9997 7.46313L25.3178 1.28882C24.6291 0.510513 23.4848 -0.000188828 22.1911 -0.000188828H3.80829C2.51464 -0.000188828 1.37029 0.510513 0.681641 1.28882L12.9997 7.46313Z" fill="black"/>
<path d="M13.4091 8.6799C13.2843 8.74245 13.1422 8.77375 13 8.77375C12.8578 8.77375 12.7156 8.74245 12.5909 8.6799L0.0748004 2.40633C0.0259488 2.59767 0 2.79537 0 2.99782V14.0647C0 15.7177 1.70854 17.0625 3.80859 17.0625H22.1914C24.2915 17.0625 26 15.7177 26 14.0647V2.99782C26 2.79537 25.9741 2.59767 25.9252 2.40637L13.4091 8.6799Z" fill="black"/>
</svg>
