<svg width="27" height="27" viewBox="0 0 27 27" fill="none" xmlns="http://www.w3.org/2000/svg">
<path fill-rule="evenodd" clip-rule="evenodd" d="M26.0471 24.5322L19.7027 18.1878L18.9436 18.9469C18.1471 19.7434 16.9289 19.8633 15.9924 19.2375C14.475 18.2237 12.9455 16.9726 11.4864 15.5135C10.0274 14.0545 8.77629 12.525 7.76243 11.0077C7.13667 10.071 7.25667 8.85287 8.05316 8.05638L8.81224 7.2973L2.46773 0.952835L2.29904 1.12152C-3.387 6.80757 2.72727 15.452 7.13761 19.8624C11.548 24.2727 20.1924 30.387 25.8784 24.7009L26.0471 24.5322ZM3.39655 0.220361C4.26282 -0.185081 5.32972 -0.0310797 6.04346 0.682658L9.08248 3.72168C9.79621 4.43542 9.95021 5.50232 9.54477 6.36859L3.39655 0.220361ZM20.6314 17.4552C21.4977 17.0497 22.5646 17.2038 23.2783 17.9175L26.3173 20.9566C27.0311 21.6702 27.1851 22.7372 26.7796 23.6035L20.6314 17.4552Z" fill="black"/>
</svg>
