<svg width="99" height="99" viewBox="0 0 99 99" fill="none" xmlns="http://www.w3.org/2000/svg">
<g clip-path="url(#clip0_119_3565)">
<path d="M68.0362 10.3278V6.20443C68.0362 2.79376 65.2618 0.0193214 61.8511 0.0193214H37.1107C33.7 0.0193214 30.9255 2.79376 30.9255 6.20443V10.3278H0V74.2406H98.9617V10.3278H68.0362ZM35.049 6.20443C35.049 5.06788 35.9741 4.14273 37.1107 4.14273H61.8511C62.9876 4.14273 63.9128 5.06788 63.9128 6.20443V10.3278H35.049V6.20443ZM94.8383 70.1172H4.12341V32.3194L32.4718 47.4385H43.2958V53.6236H55.666V47.4385H66.4899L94.8383 32.3194V70.1172ZM47.4192 49.5002V43.3151C47.4192 42.1785 48.3443 41.2534 49.4809 41.2534C50.6174 41.2534 51.5426 42.1785 51.5426 43.3151V49.5002H47.4192ZM94.8383 27.6461L65.4591 43.3151H55.666C55.666 39.9044 52.8915 37.13 49.4809 37.13C46.0702 37.13 43.2958 39.9044 43.2958 43.3151H33.5027L4.12341 27.6461V14.4512H30.9255H68.0362H94.8383V27.6461Z" fill="white"/>
<path d="M88.3979 80.4255H10.3089C5.19291 80.4255 1.03125 84.5872 1.03125 89.7032C1.03125 94.8192 5.19291 98.9809 10.3089 98.9809H88.3979L99.0004 89.7032L88.3979 80.4255ZM20.6174 94.8575H10.3089C7.46703 94.8575 5.15466 92.5451 5.15466 89.7032C5.15466 86.8613 7.46703 84.549 10.3089 84.549H20.6174V94.8575ZM76.2834 94.8575H24.7408V84.549H76.2834V94.8575ZM86.8476 94.8575H80.4068V84.549H86.8476L92.7388 89.7032L86.8476 94.8575Z" fill="white"/>
</g>
<defs>
<clipPath id="clip0_119_3565">
<rect width="99" height="99" fill="white"/>
</clipPath>
</defs>
</svg>
