<svg width="110" height="110" viewBox="0 0 110 110" fill="none" xmlns="http://www.w3.org/2000/svg">
<path d="M42.9688 80.7812C43.918 80.7812 44.6875 80.0117 44.6875 79.0625C44.6875 78.1133 43.918 77.3438 42.9688 77.3438C42.0195 77.3438 41.25 78.1133 41.25 79.0625C41.25 80.0117 42.0195 80.7812 42.9688 80.7812Z" fill="white"/>
<path d="M100.243 29.8724C100.415 29.7486 100.586 29.6369 100.758 29.4994H104.844C106.211 29.4994 107.523 28.9562 108.49 27.9892C109.457 27.0222 110 25.7107 110 24.3432C110 22.9756 109.457 21.6641 108.49 20.6971C107.523 19.7302 106.211 19.1869 104.844 19.1869H100.75C99.5122 18.0801 97.9102 17.4682 96.25 17.4682C94.5898 17.4682 92.9878 18.0801 91.7503 19.1869H80.5372C80.2816 18.1579 79.7887 17.203 79.098 16.3986C78.4073 15.5943 77.5379 14.9627 76.5594 14.5544C75.5809 14.1462 74.5204 13.9726 73.4628 14.0476C72.4052 14.1226 71.3799 14.4441 70.4688 14.9863V14.0307C70.4757 12.8143 70.158 11.6182 69.5484 10.5656C68.9388 9.51311 68.0593 8.64229 67.0009 8.04307C65.9424 7.44385 64.7431 7.13792 63.527 7.15686C62.3108 7.1758 61.1217 7.51892 60.0823 8.15081C59.9126 6.46499 59.1229 4.90227 57.8662 3.76577C56.6096 2.62928 54.9756 2 53.2812 2C51.5869 2 49.9529 2.62928 48.6963 3.76577C47.4396 4.90227 46.6499 6.46499 46.4802 8.15081C45.4408 7.51892 44.2517 7.1758 43.0355 7.15686C41.8193 7.13792 40.6201 7.44385 39.5616 8.04307C38.5032 8.64229 37.6237 9.51311 37.0141 10.5656C36.4045 11.6182 36.0868 12.8143 36.0938 14.0307V18.4667C35.5511 18.6629 35.0256 18.9037 34.5228 19.1869H18.2497C17.0122 18.0801 15.4102 17.4682 13.75 17.4682C12.0898 17.4682 10.4878 18.0801 9.25031 19.1869H5.15625C3.78873 19.1869 2.47722 19.7302 1.51023 20.6971C0.543247 21.6641 4.95113e-07 22.9756 4.95113e-07 24.3432C4.95113e-07 25.7107 0.543247 27.0222 1.51023 27.9892C2.47722 28.9562 3.78873 29.4994 5.15625 29.4994H9.25031C9.40844 29.6369 9.59406 29.7486 9.75734 29.8724L0.116875 54.6585C0.039496 54.8568 -0.000142784 55.0678 3.86453e-07 55.2807C3.86453e-07 58.9274 1.44866 62.4247 4.02728 65.0034C6.60591 67.582 10.1033 69.0306 13.75 69.0306C17.3967 69.0306 20.8941 67.582 23.4727 65.0034C26.0513 62.4247 27.5 58.9274 27.5 55.2807C27.5001 55.0678 27.4605 54.8568 27.3831 54.6585L17.7427 29.8724C17.9145 29.7486 18.0864 29.6369 18.2497 29.4994H29.2188V47.7182C29.2108 51.2692 29.9752 54.7794 31.4592 58.0055C32.9431 61.2316 35.111 64.0963 37.8125 66.401V70.7494H36.0938C35.6379 70.7494 35.2007 70.9305 34.8784 71.2528C34.5561 71.5751 34.375 72.0123 34.375 72.4681V86.2181C34.375 86.674 34.5561 87.1112 34.8784 87.4335C35.2007 87.7558 35.6379 87.9369 36.0938 87.9369V106.843C36.0938 107.299 36.2748 107.736 36.5972 108.058C36.9195 108.381 37.3567 108.562 37.8125 108.562H72.1875C72.6433 108.562 73.0805 108.381 73.4028 108.058C73.7252 107.736 73.9062 107.299 73.9062 106.843V87.9369C74.3621 87.9369 74.7993 87.7558 75.1216 87.4335C75.4439 87.1112 75.625 86.674 75.625 86.2181V72.4681C75.625 72.0123 75.4439 71.5751 75.1216 71.2528C74.7993 70.9305 74.3621 70.7494 73.9062 70.7494H72.1875V66.401C74.889 64.0963 77.0569 61.2316 78.5408 58.0055C80.0248 54.7794 80.7892 51.2692 80.7812 47.7182V29.4994H91.7503C91.9084 29.6369 92.0941 29.7486 92.2659 29.8724L82.6169 54.6585C82.5395 54.8568 82.4999 55.0678 82.5 55.2807C82.5 58.9274 83.9487 62.4247 86.5273 65.0034C89.1059 67.582 92.6033 69.0306 96.25 69.0306C99.8967 69.0306 103.394 67.582 105.973 65.0034C108.551 62.4247 110 58.9274 110 55.2807C110 55.0678 109.961 54.8568 109.883 54.6585L100.243 29.8724ZM102.881 22.6244H104.844C105.3 22.6244 105.737 22.8055 106.059 23.1278C106.381 23.4501 106.562 23.8873 106.562 24.3432C106.562 24.799 106.381 25.2362 106.059 25.5585C105.737 25.8808 105.3 26.0619 104.844 26.0619H102.881C103.206 24.9392 103.206 23.7471 102.881 22.6244ZM7.11906 26.0619H5.15625C4.70041 26.0619 4.26324 25.8808 3.94091 25.5585C3.61858 25.2362 3.4375 24.799 3.4375 24.3432C3.4375 23.8873 3.61858 23.4501 3.94091 23.1278C4.26324 22.8055 4.70041 22.6244 5.15625 22.6244H7.11906C6.79363 23.7471 6.79363 24.9392 7.11906 26.0619ZM13.75 20.9057C14.4299 20.9057 15.0945 21.1073 15.6598 21.485C16.2251 21.8627 16.6657 22.3996 16.9258 23.0277C17.186 23.6558 17.2541 24.347 17.1215 25.0138C16.9888 25.6806 16.6614 26.2931 16.1807 26.7738C15.6999 27.2546 15.0874 27.582 14.4206 27.7146C13.7538 27.8472 13.0626 27.7792 12.4345 27.519C11.8064 27.2588 11.2695 26.8182 10.8918 26.2529C10.5141 25.6876 10.3125 25.023 10.3125 24.3432C10.3125 23.4315 10.6747 22.5571 11.3193 21.9125C11.964 21.2678 12.8383 20.9057 13.75 20.9057ZM13.75 65.5931C11.3153 65.5886 8.96056 64.7237 7.10182 63.1511C5.24308 61.5786 3.99999 59.3997 3.59219 56.9994H23.9078C23.5 59.3997 22.2569 61.5786 20.3982 63.1511C18.5394 64.7237 16.1847 65.5886 13.75 65.5931ZM23.2684 53.5619H4.23156L12.9491 31.1425C13.2143 31.1834 13.4818 31.2087 13.75 31.2182C14.0182 31.2087 14.2857 31.1834 14.5509 31.1425L23.2684 53.5619ZM60.1562 14.0307C60.1562 13.119 60.5184 12.2446 61.1631 11.6C61.8077 10.9553 62.6821 10.5932 63.5938 10.5932C64.5054 10.5932 65.3798 10.9553 66.0244 11.6C66.6691 12.2446 67.0312 13.119 67.0312 14.0307V27.7807C67.0312 28.6923 66.6691 29.5667 66.0244 30.2113C65.3798 30.856 64.5054 31.2182 63.5938 31.2182C62.6821 31.2182 61.8077 30.856 61.1631 30.2113C60.5184 29.5667 60.1562 28.6923 60.1562 27.7807V14.0307ZM49.8438 8.8744C49.8438 7.96272 50.2059 7.08838 50.8506 6.44372C51.4952 5.79907 52.3696 5.4369 53.2812 5.4369C54.1929 5.4369 55.0673 5.79907 55.7119 6.44372C56.3566 7.08838 56.7188 7.96272 56.7188 8.8744V15.0052C55.9424 14.5406 55.0809 14.2361 54.185 14.1095C53.2892 13.9828 52.3771 14.0367 51.5023 14.2678L49.8438 14.7182V8.8744ZM39.5312 14.0307C39.5312 13.119 39.8934 12.2446 40.5381 11.6C41.1827 10.9553 42.0571 10.5932 42.9688 10.5932C43.8804 10.5932 44.7548 10.9553 45.3994 11.6C46.0441 12.2446 46.4062 13.119 46.4062 14.0307V15.6325L39.5312 17.4682V14.0307ZM20.3809 22.6244H30.8756C30.1977 23.674 29.7182 24.8391 29.4611 26.0619H20.3809C20.7064 24.9392 20.7064 23.7471 20.3809 22.6244ZM70.4688 105.124H39.5312V87.9369H70.4688V105.124ZM72.1875 84.4994H37.8125V74.1869H72.1875V84.4994ZM77.3438 47.7182C77.3513 50.8897 76.6429 54.022 75.2713 56.8817C73.8997 59.7413 71.9002 62.2544 69.422 64.2336C69.2154 64.3955 69.0477 64.6016 68.9314 64.837C68.8151 65.0723 68.7531 65.3307 68.75 65.5931V70.7494H41.25V65.5931C41.2477 65.3298 41.1861 65.0704 41.0697 64.8341C40.9534 64.5979 40.7853 64.3909 40.578 64.2285C38.1005 62.2498 36.1014 59.7375 34.7298 56.8788C33.3582 54.0202 32.6494 50.8888 32.6562 47.7182V28.1519C32.6558 26.638 33.155 25.1663 34.0765 23.9652C34.9979 22.7641 36.29 21.9006 37.7523 21.5089L52.3909 17.5867C52.938 17.44 53.5129 17.4308 54.0644 17.5598C54.616 17.6888 55.1271 17.9521 55.5523 18.3263C55.9775 18.7005 56.3037 19.174 56.5018 19.7047C56.6999 20.2353 56.7638 20.8067 56.6878 21.368C56.5747 22.0627 56.2594 22.7087 55.7814 23.2253C55.3033 23.7419 54.6836 24.1062 53.9997 24.2727L40.8031 27.8099C40.438 27.9078 40.1153 28.1234 39.8851 28.4232C39.6548 28.723 39.5299 29.0904 39.5295 29.4685V38.0932C39.5329 38.3231 39.5817 38.5502 39.6731 38.7612C39.7645 38.9723 39.8968 39.1632 40.0623 39.3229C40.2278 39.4827 40.4232 39.6081 40.6374 39.692C40.8516 39.7759 41.0802 39.8167 41.3102 39.8119C46.5334 39.848 50.8475 44.4371 51.48 50.341C51.5282 50.756 51.7277 51.1387 52.0404 51.4158C52.353 51.6929 52.7569 51.8451 53.1747 51.8432C53.417 51.8428 53.6565 51.7916 53.8777 51.6928C54.099 51.594 54.297 51.4499 54.459 51.2697C54.621 51.0895 54.7434 50.8774 54.8183 50.6469C54.8931 50.4165 54.9187 50.1729 54.8934 49.9319C54.1234 42.9332 49.1838 37.3696 42.967 36.4947V30.7902L46.7362 29.7796C47.084 30.9539 47.7419 32.0128 48.6407 32.8447C49.5396 33.6766 50.6461 34.2508 51.8438 34.5068C53.0415 34.7627 54.2861 34.691 55.4465 34.2992C56.6069 33.9074 57.6401 33.21 58.4375 32.2803C59.0744 33.0252 59.8651 33.6233 60.7552 34.0334C61.6453 34.4434 62.6137 34.6558 63.5938 34.6558C64.5738 34.6558 65.5422 34.4434 66.4323 34.0334C67.3224 33.6233 68.1131 33.0252 68.75 32.2803C69.7826 33.4959 71.213 34.3057 72.7866 34.5656C74.3602 34.8256 75.975 34.5189 77.3438 33.7V47.7182ZM56.7188 26.8353V27.7807C56.7222 28.5945 56.436 29.3829 55.9113 30.005C55.3866 30.6271 54.6576 31.0421 53.8549 31.1759C53.0521 31.3096 52.228 31.1534 51.5299 30.7351C50.8319 30.3167 50.3054 29.6637 50.0448 28.8927L55.0602 27.5486C55.6424 27.3861 56.2002 27.1462 56.7188 26.8353ZM77.3438 27.7807C77.3438 28.6923 76.9816 29.5667 76.3369 30.2113C75.6923 30.856 74.8179 31.2182 73.9062 31.2182C72.9946 31.2182 72.1202 30.856 71.4756 30.2113C70.8309 29.5667 70.4688 28.6923 70.4688 27.7807V20.9057C70.4688 19.994 70.8309 19.1196 71.4756 18.475C72.1202 17.8303 72.9946 17.4682 73.9062 17.4682C74.8179 17.4682 75.6923 17.8303 76.3369 18.475C76.9816 19.1196 77.3438 19.994 77.3438 20.9057V27.7807ZM89.6191 26.0619H80.7812V22.6244H89.6191C89.2936 23.7471 89.2936 24.9392 89.6191 26.0619ZM96.25 20.9057C96.9299 20.9057 97.5945 21.1073 98.1598 21.485C98.7251 21.8627 99.1657 22.3996 99.4258 23.0277C99.686 23.6558 99.7541 24.347 99.6215 25.0138C99.4888 25.6806 99.1614 26.2931 98.6807 26.7738C98.1999 27.2546 97.5874 27.582 96.9206 27.7146C96.2538 27.8472 95.5627 27.7792 94.9345 27.519C94.3064 27.2588 93.7695 26.8182 93.3918 26.2529C93.0141 25.6876 92.8125 25.023 92.8125 24.3432C92.8125 23.4315 93.1747 22.5571 93.8193 21.9125C94.464 21.2678 95.3383 20.9057 96.25 20.9057ZM95.4491 31.1425C95.9783 31.2433 96.5217 31.2433 97.0509 31.1425L105.768 53.5619H86.7316L95.4491 31.1425ZM96.25 65.5931C93.8153 65.5886 91.4606 64.7237 89.6018 63.1511C87.7431 61.5786 86.5 59.3997 86.0922 56.9994H106.408C106 59.3997 104.757 61.5786 102.898 63.1511C101.039 64.7237 98.6847 65.5886 96.25 65.5931Z" fill="white"/>
</svg>
