<svg width="26" height="26" viewBox="0 0 26 26" fill="none" xmlns="http://www.w3.org/2000/svg">
<path d="M12.6633 0C5.68 0 0 5.68 0 12.6633C0 19.6467 5.68 25.3267 12.6633 25.3267C19.6467 25.3267 25.3267 19.6467 25.3267 12.6633C25.3267 5.68 19.6467 0 12.6633 0ZM18.4433 7.82667L12.34 14.1733C12.2133 14.3067 12.0367 14.3767 11.86 14.3767C11.7767 14.3767 11.69 14.3633 11.61 14.33C11.36 14.2267 11.1933 13.9833 11.1933 13.71V8.26C11.1933 7.89 11.4933 7.59333 11.86 7.59333C12.2267 7.59333 12.5267 7.89 12.5267 8.26V12.0567L17.48 6.90333C17.7367 6.63667 18.1567 6.63003 18.4233 6.88333C18.69 7.14 18.6967 7.56333 18.4433 7.82667Z" fill="black"/>
</svg>
