<svg width="110" height="110" viewBox="0 0 110 110" fill="none" xmlns="http://www.w3.org/2000/svg">
<path d="M15.7736 93.6523C10.9506 93.6523 7.02441 89.7262 7.02441 84.9031C7.02441 80.08 10.9506 76.1538 15.7736 76.1538C20.5967 76.1538 24.5229 80.08 24.5229 84.9031C24.5229 89.7262 20.5967 93.6523 15.7736 93.6523ZM15.7736 79.5385C12.8121 79.5385 10.409 81.9415 10.409 84.9031C10.409 87.8646 12.8121 90.2677 15.7736 90.2677C18.7352 90.2677 21.1383 87.8646 21.1383 84.9031C21.1383 81.9415 18.7352 79.5385 15.7736 79.5385Z" fill="white"/>
<path d="M28.8554 109.154H2.69231C1.76154 109.154 1 108.392 1 107.462C1 99.1015 4.43538 94.38 11.1877 93.4662C11.7123 93.3985 12.2369 93.5677 12.6092 93.94L15.7738 97.1046L18.9385 93.94C19.3108 93.5677 19.8523 93.3985 20.36 93.4662C27.1292 94.38 30.5477 99.0846 30.5477 107.462C30.5477 108.392 29.7862 109.154 28.8554 109.154ZM4.43538 105.769H27.1123C26.6723 99.2877 23.6431 97.5446 20.7154 96.9523L16.9754 100.692C16.3154 101.352 15.2492 101.352 14.5892 100.692L10.8492 96.9523C7.90462 97.5446 4.87538 99.2877 4.43538 105.769Z" fill="white"/>
<path d="M47.0813 93.6523C42.2582 93.6523 38.332 89.7262 38.332 84.9031C38.332 80.08 42.2582 76.1538 47.0813 76.1538C51.9043 76.1538 55.8305 80.08 55.8305 84.9031C55.8474 89.7262 51.9213 93.6523 47.0813 93.6523ZM47.0813 79.5385C44.1197 79.5385 41.7166 81.9415 41.7166 84.9031C41.7166 87.8646 44.1197 90.2677 47.0813 90.2677C50.0428 90.2677 52.4459 87.8646 52.4459 84.9031C52.4459 81.9415 50.0428 79.5385 47.0813 79.5385Z" fill="white"/>
<path d="M60.1799 109.154H33.9999C33.0692 109.154 32.3076 108.392 32.3076 107.462C32.3076 99.1015 35.743 94.38 42.4953 93.4662C43.0199 93.3985 43.5445 93.5677 43.9168 93.94L47.0815 97.1046L50.2461 93.94C50.6184 93.5677 51.143 93.3985 51.6676 93.4662C58.4368 94.38 61.8553 99.0846 61.8553 107.462C61.8722 108.392 61.1107 109.154 60.1799 109.154ZM35.7599 105.769H58.4368C57.9968 99.2877 54.9676 97.5446 52.0399 96.9523L48.2999 100.692C47.6399 101.352 46.5738 101.352 45.9138 100.692L42.1738 96.9523C39.2292 97.5446 36.1999 99.2877 35.7599 105.769Z" fill="white"/>
<path d="M78.4055 93.6523C73.5824 93.6523 69.6562 89.7262 69.6562 84.9031C69.6562 80.08 73.5824 76.1538 78.4055 76.1538C83.2286 76.1538 87.1547 80.08 87.1547 84.9031C87.1547 89.7262 83.2286 93.6523 78.4055 93.6523ZM78.4055 79.5385C75.4439 79.5385 73.0409 81.9415 73.0409 84.9031C73.0409 87.8646 75.4439 90.2677 78.4055 90.2677C81.367 90.2677 83.7701 87.8646 83.7701 84.9031C83.7701 81.9415 81.367 79.5385 78.4055 79.5385Z" fill="white"/>
<path d="M91.4872 109.154H65.3241C64.3934 109.154 63.6318 108.392 63.6318 107.462C63.6318 99.1015 67.0672 94.38 73.8195 93.4662C74.3441 93.3985 74.8688 93.5677 75.2411 93.94L78.4057 97.1046L81.5703 93.94C81.9426 93.5677 82.4841 93.3985 82.9918 93.4662C89.7611 94.38 93.1795 99.0846 93.1795 107.462C93.1795 108.392 92.418 109.154 91.4872 109.154ZM67.0672 105.769H89.7441C89.3041 99.2877 86.2749 97.5446 83.3472 96.9523L79.6072 100.692C78.9472 101.352 77.8811 101.352 77.2211 100.692L73.4811 96.9523C70.5534 97.5446 67.5072 99.2877 67.0672 105.769Z" fill="white"/>
<path d="M16.265 23.9969C15.842 23.9969 15.4358 23.8446 15.1143 23.54L9.66504 18.4631L11.9666 15.9923L16.265 20.0031L24.3204 12.4892L26.622 14.96L17.3989 23.5569C17.0943 23.8446 16.6881 23.9969 16.265 23.9969Z" fill="white"/>
<path d="M91.0985 22.8462C87.0539 22.8462 83.7539 19.5462 83.7539 15.5015C83.7539 11.4569 87.0539 8.15692 91.0985 8.15692C95.1431 8.15692 98.4431 11.4569 98.4431 15.5015C98.4431 19.5462 95.1431 22.8462 91.0985 22.8462ZM91.0985 11.5585C88.9154 11.5585 87.1385 13.3354 87.1385 15.5185C87.1385 17.7015 88.9154 19.4785 91.0985 19.4785C93.2816 19.4785 95.0585 17.7015 95.0585 15.5185C95.0585 13.3354 93.2816 11.5585 91.0985 11.5585Z" fill="white"/>
<path d="M99.357 73.1923C96.4801 73.1923 94.0771 71.0262 93.7894 68.1492L92.7909 60.0092L91.7924 68.1831C91.4878 71.1446 88.7124 73.4462 85.7171 73.1585C82.0447 72.82 82.0447 68.8769 82.0447 67.3877V47.7062L80.9109 38.28L77.7463 39.7354C76.7986 40.1754 75.8001 40.4631 74.7678 40.6154L67.1524 41.7154C64.5124 41.8508 62.3801 40.0062 62.1094 37.5523C61.974 36.2662 62.3632 34.9631 63.2094 33.9815C64.0555 33 65.274 32.3908 66.5601 32.34L72.7878 31.4262C74.1924 31.2231 75.4955 30.6477 76.5447 29.7338C79.7601 26.9923 84.5832 23.7092 89.2878 23.7092C89.7447 23.7092 90.1678 23.8954 90.4894 24.2L92.774 26.4846L95.0586 24.2C95.3294 23.9292 95.7017 23.76 96.0909 23.7092C99.2894 23.3877 102.454 25.3169 105.009 29.1246C108.394 34.1677 110.628 42.6969 108.411 46.8431C107.599 48.3662 106.245 49.1954 104.586 49.1954C104.282 49.1954 103.892 49.2123 103.52 49.2123V67.5908C103.537 71.2969 102.132 73.1923 99.357 73.1923ZM82.3155 34.0831C82.6032 34.0831 82.8909 34.1508 83.1447 34.3031C83.6186 34.5738 83.9401 35.0477 83.9909 35.5723L85.4124 47.4015C85.4124 47.4692 85.4294 47.5369 85.4294 47.6046V67.3877C85.4294 69.74 85.7847 69.7738 86.0217 69.7908C87.2063 69.9092 88.3063 68.9785 88.4247 67.8108L90.6924 49.3477C90.8617 48.2646 91.7417 47.5031 92.7909 47.5031C93.8571 47.5031 94.737 48.2646 94.8894 49.3138L97.1571 67.7938C97.2755 68.9615 98.2232 69.8246 99.357 69.8246C99.7971 69.8246 100.152 69.8246 100.152 67.6077V47.6046C100.152 46.7077 100.863 45.9631 101.76 45.9123C101.76 45.9123 103.571 45.8108 104.603 45.8108C104.942 45.8108 105.196 45.7262 105.432 45.2523C106.685 42.8831 105.449 35.86 102.2 31.02C101.219 29.5646 99.2894 27.2123 96.9878 27.0769L93.9755 30.0892C93.654 30.4108 93.2309 30.58 92.774 30.58C92.3171 30.58 91.894 30.3938 91.5724 30.0892L88.6109 27.1277C84.9047 27.4662 80.8771 30.4785 78.7278 32.3062C77.1878 33.6262 75.2924 34.4723 73.2617 34.7769L66.8647 35.7077C66.3401 35.7415 66.0017 35.9108 65.7647 36.1815C65.5278 36.4692 65.4094 36.8246 65.4601 37.18C65.5278 37.8738 66.1371 38.3815 66.8309 38.3477L74.277 37.2646C74.9878 37.1631 75.6817 36.96 76.3247 36.6554L81.6047 34.2354C81.8417 34.1338 82.0786 34.0831 82.3155 34.0831Z" fill="white"/>
<path d="M103.537 47.6046H100.152V47.4185C100.152 41.8677 99.2891 38.4492 96.8691 34.3369L99.7799 32.6277C102.505 37.2646 103.52 41.2754 103.52 47.4354V47.6046H103.537Z" fill="white"/>
<path d="M18.16 35.1492C8.7 35.1492 1 27.4492 1 17.9892C1 8.52923 8.7 0.846153 18.16 0.846153C27.62 0.846153 35.32 8.54615 35.32 18.0062C35.32 27.4662 27.62 35.1492 18.16 35.1492ZM18.16 4.23077C10.5615 4.23077 4.38462 10.4077 4.38462 18.0062C4.38462 25.6046 10.5615 31.7815 18.16 31.7815C25.7585 31.7815 31.9354 25.6046 31.9354 18.0062C31.9354 10.4077 25.7415 4.23077 18.16 4.23077Z" fill="white"/>
<path d="M76.8331 32.5092H73.4485V16.1446H33.1885V12.76H75.1408C76.0716 12.76 76.8331 13.5215 76.8331 14.4523V32.5092Z" fill="white"/>
<path d="M75.1404 66.2708H11.4589C10.5281 66.2708 9.7666 65.5092 9.7666 64.5785V31.9338H13.1512V62.8862H73.4481V38.8046H76.8328V64.5785C76.8328 65.5092 76.0712 66.2708 75.1404 66.2708Z" fill="white"/>
<path d="M36.4033 28.0077H62.9895V31.3923H36.4033V28.0077Z" fill="white"/>
<path d="M23.5928 37.8231H58.2851V41.2077H23.5928V37.8231Z" fill="white"/>
<path d="M23.5928 47.6385H62.9897V51.0231H23.5928V47.6385Z" fill="white"/>
</svg>
