<svg width="47" height="47" viewBox="0 0 47 47" fill="none" xmlns="http://www.w3.org/2000/svg">
<path d="M24.7128 23.1483L35.1324 37.7824H30.8562L22.3536 25.8409V25.8402L21.1053 24.0872L11.1729 10.1367H15.4491L23.4645 21.3953L24.7128 23.1483Z" fill="black"/>
<path d="M41.2118 0.921387H5.09288C2.34334 0.921387 0.114258 3.15047 0.114258 5.90001V42.0189C0.114258 44.7685 2.34334 46.9975 5.09288 46.9975H41.2118C43.9613 46.9975 46.1904 44.7685 46.1904 42.0189V5.90001C46.1904 3.15047 43.9613 0.921387 41.2118 0.921387ZM29.5031 39.9949L20.9409 27.5336L10.221 39.9949H7.45039L19.7107 25.7439L7.45039 7.9004H16.8016L24.9094 19.7003L35.0604 7.9004H37.831L26.14 21.4904H26.1392L38.8543 39.9949H29.5031Z" fill="black"/>
</svg>
